<svg xmlns="http://www.w3.org/2000/svg" viewBox="0 0 167.498 148.207"><g id="Layer_2" data-name="Layer 2"><g id="Layer_2-2" data-name="Layer 2"><path d="M108.467,59.031A52.727,52.727,0,0,1,97.231,1.1a.786.786,0,0,0-1.093-1A52.716,52.716,0,1,0,167.4,71.36a.786.786,0,0,0-1-1.093A52.727,52.727,0,0,1,108.467,59.031Z" fill="#fff173"/><path d="M112.887,90.657a28.673,28.673,0,0,0-6.111.683,35.394,35.394,0,0,0-69.4-13.865c-.651-.035-1.3-.1-1.959-.1a35.415,35.415,0,0,0,0,70.83h77.472a28.775,28.775,0,1,0,0-57.55Z" fill="#fff"/></g></g></svg>