<svg xmlns="http://www.w3.org/2000/svg" viewBox="0 0 180.357 132.738"><g id="Layer_2" data-name="Layer 2"><g id="Layer_2-2" data-name="Layer 2"><path d="M149.454,61.67c0,6.562-2.6,16.22-8.963,21.077-3.685-8.877-14.992-16.248-27.219-14.4,1.926-11.139-4.634-27-15.1-31.183,5.192-5.444,14.721-6.264,20.505-6.264A30.8,30.8,0,0,1,149.454,61.67Z" fill="#fff173"/><path d="M119.64,22.264a3.4,3.4,0,0,0,3.467-3.3l.382-15.494A3.386,3.386,0,0,0,116.72,3.3l-.387,15.493A3.4,3.4,0,0,0,119.64,22.264Z" fill="#fff173"/><path d="M152.021,34.615l11.226-10.684a3.386,3.386,0,0,0-4.669-4.9l-11.23,10.684a3.387,3.387,0,1,0,4.673,4.9Z" fill="#fff173"/><path d="M177.054,59.746l-15.494-.381a3.386,3.386,0,1,0-.169,6.769l15.493.382a3.386,3.386,0,1,0,.17-6.77Z" fill="#fff173"/><path d="M112.887,75.188a28.738,28.738,0,0,0-6.111.682,35.394,35.394,0,0,0-69.4-13.864c-.651-.035-1.3-.1-1.959-.1a35.416,35.416,0,0,0,0,70.831h77.472a28.775,28.775,0,1,0,0-57.55Z" fill="#fff"/></g></g></svg>