<svg xmlns="http://www.w3.org/2000/svg" xmlns:xlink="http://www.w3.org/1999/xlink" viewBox="0 0 180.83 34.939"><defs><linearGradient id="linear-gradient" x1="150.464" y1="28.321" x2="154.561" y2="34.002" gradientUnits="userSpaceOnUse"><stop offset="0" stop-color="#f5b85f"/><stop offset="0.433" stop-color="#9c8d51"/><stop offset="0.906" stop-color="#365b42"/></linearGradient><linearGradient id="linear-gradient-2" x1="143.63" y1="20.89" x2="150.42" y2="29.93" gradientUnits="userSpaceOnUse"><stop offset="0" stop-color="#db9941"/><stop offset="1" stop-color="#f6b85f"/></linearGradient><linearGradient id="linear-gradient-3" x1="147.894" y1="20.355" x2="143.394" y2="14.356" gradientUnits="userSpaceOnUse"><stop offset="0" stop-color="#db9941"/><stop offset="0.228" stop-color="#d6913e"/><stop offset="0.583" stop-color="#ca7b36"/><stop offset="1" stop-color="#b65929"/></linearGradient><linearGradient id="linear-gradient-4" x1="147.044" y1="16.318" x2="132.557" y2="7.954" gradientUnits="userSpaceOnUse"><stop offset="0" stop-color="#b65929"/><stop offset="0.318" stop-color="#b05429"/><stop offset="0.758" stop-color="#9e4729"/><stop offset="1" stop-color="#913d29"/></linearGradient><linearGradient id="linear-gradient-5" x1="134.976" y1="8.414" x2="128.095" y2="4.442" gradientUnits="userSpaceOnUse"><stop offset="0" stop-color="#923d29"/><stop offset="0.373" stop-color="#8c3a26"/><stop offset="0.888" stop-color="#7a311d"/><stop offset="1" stop-color="#752e1b"/></linearGradient><linearGradient id="linear-gradient-6" x1="140.503" y1="15.816" x2="147.527" y2="27.981" gradientUnits="userSpaceOnUse"><stop offset="0" stop-color="#2c6b3e"/><stop offset="0.418" stop-color="#2c6b3e"/><stop offset="0.568" stop-color="#2b663c"/><stop offset="0.743" stop-color="#285837"/><stop offset="0.931" stop-color="#24412e"/><stop offset="1" stop-color="#22362a"/></linearGradient></defs><g id="Layer_2" data-name="Layer 2"><g id="Layer_2-2" data-name="Layer 2"><path d="M1.34,19.67H5.4a1.348,1.348,0,0,1,0,2.7H1.34a1.348,1.348,0,0,1,0-2.7Z" fill="#a58456"/><path d="M1.34,11.581H5.4a1.349,1.349,0,0,1,0,2.7H1.34a1.349,1.349,0,0,1,0-2.7Z" fill="#a58456"/><path d="M1.348,15.625h15.5a1.349,1.349,0,0,1,0,2.7H1.348a1.349,1.349,0,0,1,0-2.7Z" fill="#a58456"/><path d="M16.844,26.41H3.37a1.348,1.348,0,1,1,0-2.7H16.844a1.348,1.348,0,1,1,0,2.7Z" fill="#a58456"/><path d="M16.844,10.233H3.37a1.348,1.348,0,1,1,0-2.7H16.844a1.348,1.348,0,1,1,0,2.7Z" fill="#a58456"/><path d="M20.9,30.455H7.413a1.348,1.348,0,0,1,0-2.7H20.9a1.348,1.348,0,0,1,0,2.7Z" fill="#134169"/><path d="M20.882,6.189H7.4a1.349,1.349,0,0,1,0-2.7H20.882a1.349,1.349,0,0,1,0,2.7Z" fill="#134169"/><path d="M24.948,26.41h-4.06a1.348,1.348,0,0,1,0-2.7h4.06a1.348,1.348,0,0,1,0,2.7Z" fill="#134169"/><path d="M26.962,22.366H9.436a1.349,1.349,0,0,1,0-2.7H26.962a1.349,1.349,0,0,1,0,2.7Z" fill="#134169"/><path d="M26.962,14.277H9.436a1.348,1.348,0,1,1,0-2.7H26.962a1.348,1.348,0,1,1,0,2.7Z" fill="#134169"/><path d="M26.969,18.322H20.888a1.349,1.349,0,0,1,0-2.7h6.081a1.349,1.349,0,0,1,0,2.7Z" fill="#134169"/><path d="M24.948,10.233h-4.06a1.348,1.348,0,0,1,0-2.7h4.06a1.348,1.348,0,0,1,0,2.7Z" fill="#134169"/><path d="M50.938,3.074c.289,2.063.825,4.25,1.2,6.107a2.038,2.038,0,0,1-.95.206.7.7,0,0,1-.66-.33c-.866-2.27-1.938-4.168-4.456-4.168H42.644c-.948,0-1.856.042-2.063.5A7.82,7.82,0,0,0,40.375,7.9v7.385c0,.248.867.454,1.775.454h2.186c2.435,0,2.97-.495,3.631-2.888.042-.206.206-.33.5-.33a1.372,1.372,0,0,1,.783.206v7.923a1.52,1.52,0,0,1-.742.164c-.29,0-.537-.123-.578-.33-.5-1.98-1.072-2.351-1.445-2.517a10.3,10.3,0,0,0-3.135-.288c-1.156,0-2.971.083-2.971.577v6.4a13.038,13.038,0,0,0,.33,3.259c.247.578,1.609.825,2.682.825H46.11a5.207,5.207,0,0,0,3.837-1.362,10.632,10.632,0,0,0,2.229-3.92c.041-.164.288-.247.578-.247a2.966,2.966,0,0,1,1.238.247,52.845,52.845,0,0,0-2.229,7.1c-1.733,0-18.527,0-20.136.041a2.158,2.158,0,0,1,0-1.527c.537-.041,2.434-.164,2.641-.7a12.037,12.037,0,0,0,.33-3.879V9.3a12.037,12.037,0,0,0-.33-3.879c-.207-.536-2.1-.618-2.641-.66a2.158,2.158,0,0,1,0-1.527c1.857.124,4.167.124,5.9.124S48.5,3.115,50.938,3.074Z" fill="#a58456"/><path d="M68.18,3.156a2.153,2.153,0,0,1,0,1.527c-.535.041-2.434.206-2.64.742A12.037,12.037,0,0,0,65.21,9.3V24.489a12.037,12.037,0,0,0,.33,3.879c.206.537,2.1.7,2.64.742a2.156,2.156,0,0,1,0,1.528c-1.609-.166-4.167-.29-5.9-.29s-4.209.124-5.818.29a2.167,2.167,0,0,1,0-1.528c.536-.041,2.435-.2,2.641-.742a12.037,12.037,0,0,0,.33-3.879V9.3a12.037,12.037,0,0,0-.33-3.879c-.206-.536-2.105-.7-2.641-.742a2.164,2.164,0,0,1,0-1.527c1.609.165,4.168.289,5.9.289S66.571,3.321,68.18,3.156Z" fill="#a58456"/><path d="M82.373,3.156a2.158,2.158,0,0,1,0,1.527c-.537.041-2.434.206-2.641.742A12.037,12.037,0,0,0,79.4,9.3v7.552c0,2.805.083,4.868,1.032,7.055a6.33,6.33,0,0,0,6.271,3.962c3.3,0,6.685-2.93,6.685-10.151V10.707a19.364,19.364,0,0,0-.577-5.034c-.33-.784-2.559-.949-3.095-.99a2.153,2.153,0,0,1,0-1.527c1.939.165,3.259.289,5.158.289,1.815,0,3.136-.207,4.828-.289a2.175,2.175,0,0,1,0,1.527c-.537.041-2.848.124-3.178.99a19,19,0,0,0-.578,4.993v8c0,8.419-5.364,12.173-11.306,12.173-3.466,0-6.726-1.155-8.706-3.63-1.609-2.023-2.31-4.87-2.31-9.161V9.3A12,12,0,0,0,73.3,5.425c-.206-.536-2.105-.7-2.641-.742a2.164,2.164,0,0,1,0-1.527c1.61.165,4.168.289,5.9.289S80.764,3.321,82.373,3.156Z" fill="#a58456"/><rect x="109.168" y="3.156" width="1.189" height="27.606" fill="#923d29"/><path d="M179.876,21.356a2.639,2.639,0,0,0,.5-1.418,1.532,1.532,0,0,0-1.313-1.563l0-.016h-1.928l.036-.172a9.939,9.939,0,0,1,.805-2.435h.7l.226-.1a2.485,2.485,0,0,0,1.562-2.255,1.808,1.808,0,0,0-1.573-1.881l0-.018h-1.953l-1.213.248.082-.278h-2.218l-.608.3a2.82,2.82,0,0,0-1.233-.271,3.914,3.914,0,0,0-2.54.959,2.531,2.531,0,0,0-2.148-.959,3.9,3.9,0,0,0-.641.053l.371-1.572h-8.943l-.536,2.544.907.162.943,2.784-.191.9-.846.092-.228,1.08a11.722,11.722,0,0,0-2.152-3.669c-.2-.232-.417-.462-.668-.7a10.908,10.908,0,0,0-3.034-2.052,11.9,11.9,0,0,0-5.02-1.017,15.06,15.06,0,0,0-2.029.132c-.119.016-.237.034-.354.052l.115-.585h12.2V1.212H136.534L134.5,11.525V0l-1.934,1.455A13.319,13.319,0,0,1,130.841,2.5c-.775.4-1.649.814-2.6,1.218A26.544,26.544,0,0,1,125.4,4.747a12.312,12.312,0,0,1-2.519.491l-1.119.083V7.809h1.208a1.446,1.446,0,0,1,.979.271,2.084,2.084,0,0,1,.591.878l.005.009a4.837,4.837,0,0,1,.284,1.229v.013c.054.563.065.837.065.968v10.19l.567.354a11.059,11.059,0,0,1,1.272.948,33.865,33.865,0,0,1,4.885,5.693l.014.02a14.488,14.488,0,0,0,1.04,1.26,16.925,16.925,0,0,0,2.242,2.025,16.669,16.669,0,0,0,4.458,2.374,15.705,15.705,0,0,0,4.212.854c.441.029.854.044,1.262.044a15.176,15.176,0,0,0,6.079-1.139,12.727,12.727,0,0,0,4.359-3.037,12.95,12.95,0,0,0,2.205-3.268H180.83V21.356Zm-44.049-.242-1.018,1.808q-.145.258-.31.51V15.288l2.334,2.668A8.138,8.138,0,0,0,135.827,21.114Z" fill="#e8e9df"/><path d="M161.671,16.858c-.115.529.058.567.7.634l-.077.365h-3.247l.077-.365c.7-.076.846-.124.961-.634l.327-1.537-1.182-3.487c-.086-.259-.211-.307-.48-.355l.076-.365h3l-.077.365c-.6.029-.807.144-.807.432a1.616,1.616,0,0,0,.115.49l.8,2.315,1.72-2.344a1.359,1.359,0,0,0,.308-.6c0-.183-.164-.289-.654-.3l.077-.365h1.96l-.087.365a.894.894,0,0,0-.634.355l-2.536,3.449Z" fill="#2b5b3f"/><path d="M165.437,15.542a1.935,1.935,0,0,0-.01.24c0,.856.375,1.317,1.009,1.317a1.871,1.871,0,0,0,1.4-.827l.2.183a2.8,2.8,0,0,1-2.373,1.5,1.712,1.712,0,0,1-1.749-1.882,3.4,3.4,0,0,1,3.142-3.44c.932,0,1.364.481,1.364,1.057C168.425,14.822,167.089,15.264,165.437,15.542Zm.039-.3c1.21-.289,1.806-.894,1.806-1.759,0-.288-.116-.49-.385-.49C166.244,13,165.639,14.178,165.476,15.245Z" fill="#2b5b3f"/><path d="M171.844,15.782c-.624,1.259-1.335,2.171-2.19,2.171-.711,0-1.124-.566-1.124-1.5,0-1.864,1.441-3.824,3.218-3.824a1.5,1.5,0,0,1,1.134.461l.989-.489h.318l-.365,1.229-.663,2.709a2.931,2.931,0,0,0-.077.4c0,.1.048.144.134.144.173,0,.413-.221.8-.692l.212.173c-.653.913-1.124,1.383-1.806,1.383a.8.8,0,0,1-.874-.845A5.667,5.667,0,0,1,171.844,15.782Zm.625-2.343a.576.576,0,0,0-.547-.423c-.981,0-1.864,1.816-1.864,3.228,0,.384.105.662.384.662C171,16.906,171.912,15.523,172.469,13.439Z" fill="#2b5b3f"/><path d="M176.878,14.149l-.432,1.355c.98-2.027,1.489-2.873,2.171-2.873a.617.617,0,0,1,.634.692,1.272,1.272,0,0,1-.826,1.143h-.077c0-.24-.067-.442-.346-.442-.7,0-1.537,1.586-2.017,3.833h-1.527l1.066-4.236L175,13.266l.048-.221,2.017-.414h.24Z" fill="#2b5b3f"/><path d="M159.7,20.641h-.945l-.22.371a.4.4,0,0,0-.065.174c0,.086.086.119.277.129l-.032.138h-.765l.029-.138a.272.272,0,0,0,.238-.133l1.2-1.992-.054-.285h.632l.429,2.277c.018.094.087.119.184.133l-.029.138h-1.162l.029-.138c.191-.007.336-.032.336-.194a.448.448,0,0,0-.011-.109Zm-.844-.174h.812l-.192-1.039Z" fill="#2b5b3f"/><path d="M161.621,20.377c.26-.516.639-.887.982-.887a.257.257,0,0,1,.277.292.677.677,0,0,1-.029.187l-.27.989a.752.752,0,0,0-.029.152c0,.036.018.054.051.054.064,0,.158-.083.3-.26l.079.065c-.245.343-.422.52-.675.52a.3.3,0,0,1-.331-.311,1,1,0,0,1,.05-.3l.235-.816a.652.652,0,0,0,.021-.119c0-.043-.014-.068-.061-.068-.17,0-.577.487-.725,1.079l-.127.5h-.573l.4-1.592-.2-.133.018-.083.758-.155h.09Z" fill="#2b5b3f"/><path d="M163.887,20.377c.26-.516.639-.887.982-.887a.257.257,0,0,1,.278.292.717.717,0,0,1-.029.187l-.271.989a.752.752,0,0,0-.029.152c0,.036.018.054.051.054.064,0,.158-.083.3-.26l.08.065c-.246.343-.423.52-.675.52a.3.3,0,0,1-.332-.311,1,1,0,0,1,.05-.3l.235-.816a.652.652,0,0,0,.021-.119c0-.043-.014-.068-.061-.068-.17,0-.577.487-.725,1.079l-.127.5h-.573l.4-1.592-.2-.133.018-.083.758-.155h.09Z" fill="#2b5b3f"/><path d="M165.7,19.861l-.2-.133.018-.083.754-.155h.094L166,20.958a.752.752,0,0,0-.029.152.047.047,0,0,0,.051.054c.065,0,.159-.083.3-.26l.079.065c-.246.343-.422.52-.675.52a.293.293,0,0,1-.321-.311,1.239,1.239,0,0,1,.04-.3Zm.173-.851a.32.32,0,0,1,.332-.325.29.29,0,0,1,.31.289.323.323,0,0,1-.335.324A.289.289,0,0,1,165.872,19.01Z" fill="#2b5b3f"/><path d="M166.539,19.713l.026-.072.671-.151h.05l.1,1.476.285-.34a.872.872,0,0,0,.256-.563c0-.2-.133-.3-.339-.3l.007-.043a.479.479,0,0,1,.4-.234.307.307,0,0,1,.321.346,1.384,1.384,0,0,1-.479.823l-.773.815H166.9l-.155-1.638Z" fill="#2b5b3f"/><path d="M168.907,20.583a.678.678,0,0,0,0,.09c0,.321.141.5.379.5a.7.7,0,0,0,.527-.311l.075.069a1.049,1.049,0,0,1-.891.563.644.644,0,0,1-.657-.707,1.276,1.276,0,0,1,1.181-1.292c.35,0,.512.18.512.4C170.029,20.312,169.527,20.478,168.907,20.583Zm.014-.112c.455-.108.678-.335.678-.66,0-.108-.043-.184-.144-.184C169.21,19.627,168.982,20.07,168.921,20.471Z" fill="#2b5b3f"/><path d="M170.945,20.06l-.162.508c.368-.761.559-1.078.816-1.078a.231.231,0,0,1,.238.259.479.479,0,0,1-.311.43H171.5c0-.09-.026-.166-.13-.166-.264,0-.578.595-.758,1.44h-.574l.4-1.592-.2-.133.018-.083.758-.155h.09Z" fill="#2b5b3f"/><path d="M172.634,21.15c0-.267-.7-.563-.7-1.014a.705.705,0,0,1,.757-.646c.293,0,.52.115.52.343a.287.287,0,0,1-.231.248h-.029c-.061-.238-.206-.447-.411-.447a.18.18,0,0,0-.2.191c0,.235.733.581.733,1.011a.709.709,0,0,1-.765.653c-.375,0-.639-.166-.639-.415a.312.312,0,0,1,.235-.292h.025c.068.339.242.566.491.566A.191.191,0,0,0,172.634,21.15Z" fill="#2b5b3f"/><path d="M174.55,20.673c-.234.473-.5.816-.822.816-.268,0-.423-.213-.423-.563a1.4,1.4,0,0,1,1.209-1.436.561.561,0,0,1,.426.173l.372-.184h.119l-.137.462-.249,1.017a1.058,1.058,0,0,0-.029.152c0,.036.018.054.05.054.065,0,.156-.083.3-.26l.079.065c-.245.343-.422.52-.678.52a.3.3,0,0,1-.329-.318A2.144,2.144,0,0,1,174.55,20.673Zm.235-.88a.217.217,0,0,0-.206-.159c-.368,0-.7.682-.7,1.212,0,.145.04.25.144.25C174.233,21.1,174.576,20.576,174.785,19.793Z" fill="#2b5b3f"/><path d="M176.441,20.06l-.162.508c.368-.761.559-1.078.815-1.078a.232.232,0,0,1,.239.259.479.479,0,0,1-.311.43h-.029c0-.09-.025-.166-.13-.166-.263,0-.577.595-.758,1.44h-.573l.4-1.592-.2-.133.018-.083.758-.155h.09Z" fill="#2b5b3f"/><path d="M177.314,19.713l.025-.072L178,19.49h.051l.3,1.663.054-.076a1.568,1.568,0,0,0,.394-.959.32.32,0,0,0-.365-.351l0-.043a.472.472,0,0,1,.386-.234.332.332,0,0,1,.346.371,2.94,2.94,0,0,1-.689,1.328c-.57.8-.891,1.047-1.245,1.047-.2,0-.371-.105-.371-.311a.325.325,0,0,1,.252-.3h.051c0,.224.083.357.271.357a.635.635,0,0,0,.468-.263l-.378-1.88Z" fill="#2b5b3f"/><rect x="153.377" y="22.485" width="26.245" height="3.723" fill="#2b5b3f"/><path d="M158.232,25.728l.085-.438.8-.737a3.06,3.06,0,0,0,.378-.4,1.135,1.135,0,0,0,.178-.327,1.069,1.069,0,0,0,.048-.32.535.535,0,0,0-.042-.229.134.134,0,0,0-.124-.089c-.083,0-.151.064-.2.194a1.4,1.4,0,0,0-.087.492.664.664,0,0,1-.362-.091.3.3,0,0,1-.146-.274.51.51,0,0,1,.219-.414,1.021,1.021,0,0,1,.638-.171.993.993,0,0,1,.566.138.431.431,0,0,1,.2.378.8.8,0,0,1-.051.286.975.975,0,0,1-.17.282,2.755,2.755,0,0,1-.334.327c-.142.122-.322.265-.539.431l-.566.484h.787a.3.3,0,0,0,.251-.1.9.9,0,0,0,.125-.227l.028-.074h.248l-.217.884Z" fill="#e8e9df"/><path d="M161.365,25.771a.656.656,0,0,1-.52-.229.983.983,0,0,1-.2-.663,2.987,2.987,0,0,1,.047-.506,2.957,2.957,0,0,1,.143-.527,2.164,2.164,0,0,1,.241-.467,1.178,1.178,0,0,1,.339-.336.8.8,0,0,1,.44-.126.732.732,0,0,1,.359.089.622.622,0,0,1,.254.278,1.077,1.077,0,0,1,.093.478,2.966,2.966,0,0,1-.047.5,3.351,3.351,0,0,1-.139.538,2.2,2.2,0,0,1-.237.484,1.267,1.267,0,0,1-.337.353A.753.753,0,0,1,161.365,25.771Zm.023-.291a.253.253,0,0,0,.194-.134,1.552,1.552,0,0,0,.172-.349,4.014,4.014,0,0,0,.14-.469q.06-.253.093-.5a3.29,3.29,0,0,0,.033-.434q0-.4-.174-.4c-.062,0-.124.044-.185.13a1.627,1.627,0,0,0-.172.343,3.755,3.755,0,0,0-.142.465c-.04.169-.071.335-.095.5a3.188,3.188,0,0,0-.034.44.754.754,0,0,0,.046.3C161.295,25.446,161.336,25.48,161.388,25.48Z" fill="#e8e9df"/><path d="M162.811,25.728l.05-.225h.217a.258.258,0,0,0,.184-.06.325.325,0,0,0,.088-.18l.294-1.4c.018-.082.037-.164.055-.246s.041-.165.069-.25h-.011a2.275,2.275,0,0,1-.272.3.342.342,0,0,1-.224.1.156.156,0,0,1-.129-.081.425.425,0,0,1-.05-.241,2.373,2.373,0,0,0,.26-.095,1.835,1.835,0,0,0,.341-.2l.279-.2h.516l-.485,2.272a.97.97,0,0,0-.021.095.437.437,0,0,0-.01.08.089.089,0,0,0,.074.093.726.726,0,0,0,.182.019h.155l-.05.225Z" fill="#e8e9df"/><path d="M165.715,25.771a.656.656,0,0,1-.52-.229.983.983,0,0,1-.2-.663,2.987,2.987,0,0,1,.047-.506,2.957,2.957,0,0,1,.143-.527,2.164,2.164,0,0,1,.241-.467,1.178,1.178,0,0,1,.339-.336.8.8,0,0,1,.44-.126.732.732,0,0,1,.359.089.622.622,0,0,1,.254.278,1.077,1.077,0,0,1,.093.478,2.966,2.966,0,0,1-.047.5,3.351,3.351,0,0,1-.139.538,2.2,2.2,0,0,1-.237.484,1.267,1.267,0,0,1-.337.353A.753.753,0,0,1,165.715,25.771Zm.023-.291a.253.253,0,0,0,.194-.134A1.552,1.552,0,0,0,166.1,25a4.014,4.014,0,0,0,.14-.469q.06-.253.093-.5a3.29,3.29,0,0,0,.033-.434q0-.4-.174-.4c-.062,0-.124.044-.185.13a1.627,1.627,0,0,0-.172.343,3.755,3.755,0,0,0-.142.465c-.04.169-.071.335-.095.5a3.188,3.188,0,0,0-.034.44.754.754,0,0,0,.046.3C165.645,25.446,165.686,25.48,165.738,25.48Z" fill="#e8e9df"/><path d="M168.041,24.9l.109-.461h.876l-.109.461Z" fill="#e8e9df"/><path d="M170.161,25.728l.086-.438.8-.737a3.01,3.01,0,0,0,.379-.4,1.135,1.135,0,0,0,.178-.327,1.069,1.069,0,0,0,.048-.32.535.535,0,0,0-.042-.229.134.134,0,0,0-.124-.089c-.083,0-.151.064-.2.194a1.4,1.4,0,0,0-.087.492.67.67,0,0,1-.363-.091.3.3,0,0,1-.145-.274.51.51,0,0,1,.219-.414,1.019,1.019,0,0,1,.638-.171,1,1,0,0,1,.566.138.432.432,0,0,1,.2.378.8.8,0,0,1-.05.286,1,1,0,0,1-.171.282,2.737,2.737,0,0,1-.333.327c-.142.122-.322.265-.539.431l-.566.484h.787a.3.3,0,0,0,.25-.1.868.868,0,0,0,.126-.227l.027-.074h.248l-.217.884Z" fill="#e8e9df"/><path d="M173.294,25.771a.655.655,0,0,1-.519-.229.983.983,0,0,1-.2-.663,3.087,3.087,0,0,1,.046-.506,2.96,2.96,0,0,1,.144-.527,2.161,2.161,0,0,1,.24-.467,1.194,1.194,0,0,1,.34-.336.794.794,0,0,1,.44-.126.728.728,0,0,1,.358.089.616.616,0,0,1,.254.278,1.076,1.076,0,0,1,.094.478,2.966,2.966,0,0,1-.047.5,3.355,3.355,0,0,1-.14.538,2.242,2.242,0,0,1-.236.484,1.256,1.256,0,0,1-.338.353A.753.753,0,0,1,173.294,25.771Zm.024-.291a.252.252,0,0,0,.193-.134,1.551,1.551,0,0,0,.173-.349,4.014,4.014,0,0,0,.14-.469q.06-.253.093-.5a3.452,3.452,0,0,0,.032-.434c0-.264-.057-.4-.174-.4-.062,0-.123.044-.184.13a1.625,1.625,0,0,0-.173.343,3.758,3.758,0,0,0-.141.465c-.04.169-.072.335-.095.5a3.2,3.2,0,0,0-.035.44.734.734,0,0,0,.047.3C173.224,25.446,173.266,25.48,173.318,25.48Z" fill="#e8e9df"/><path d="M174.511,25.728l.086-.438.8-.737a3.01,3.01,0,0,0,.379-.4,1.135,1.135,0,0,0,.178-.327A1.069,1.069,0,0,0,176,23.5a.535.535,0,0,0-.042-.229.134.134,0,0,0-.124-.089c-.083,0-.151.064-.2.194a1.4,1.4,0,0,0-.087.492.67.67,0,0,1-.363-.091.3.3,0,0,1-.145-.274.51.51,0,0,1,.219-.414,1.019,1.019,0,0,1,.638-.171,1,1,0,0,1,.566.138.432.432,0,0,1,.2.378.8.8,0,0,1-.05.286,1,1,0,0,1-.171.282,2.737,2.737,0,0,1-.333.327c-.142.122-.322.265-.539.431l-.566.484h.787a.3.3,0,0,0,.25-.1.868.868,0,0,0,.126-.227l.027-.074h.248l-.217.884Z" fill="#e8e9df"/><path d="M177.516,25.767a.8.8,0,0,1-.527-.14.429.429,0,0,1-.159-.333.379.379,0,0,1,.089-.252.353.353,0,0,1,.283-.105,1.255,1.255,0,0,0,.025.24.437.437,0,0,0,.1.208.29.29,0,0,0,.227.083.352.352,0,0,0,.312-.18.97.97,0,0,0,.115-.521.491.491,0,0,0-.1-.343.345.345,0,0,0-.268-.115.6.6,0,0,0-.192.027,1.066,1.066,0,0,0-.137.058l-.167-.1.368-1.33h1.4l-.128.763h-.26c0-.033.009-.07.012-.112s0-.068,0-.081a.085.085,0,0,0-.035-.07.236.236,0,0,0-.136-.027h-.721l-.174.663c.043-.013.095-.027.155-.041a.979.979,0,0,1,.221-.021.872.872,0,0,1,.579.18.641.641,0,0,1,.216.522,1.072,1.072,0,0,1-.13.525.94.94,0,0,1-.375.37A1.206,1.206,0,0,1,177.516,25.767Z" fill="#e8e9df"/><path d="M143.668,33.611c.387.026.779.042,1.18.042a13.9,13.9,0,0,0,5.6-1.04,11.418,11.418,0,0,0,6.283-6.494,11.973,11.973,0,0,0,.7-2.855A55.188,55.188,0,0,1,143.668,33.611Z" fill="url(#linear-gradient)"/><path d="M157.428,23.264a10.675,10.675,0,0,0,.074-1.236,11.927,11.927,0,0,0-.677-3.978,10.494,10.494,0,0,0-2-3.467c-.186-.217-.384-.422-.589-.621a46.857,46.857,0,0,1-3.151,3.556,8.309,8.309,0,0,1-13.537,9.588q-1.947.909-3.987,1.64a15.655,15.655,0,0,0,2.081,1.879,15.413,15.413,0,0,0,4.136,2.2,14.462,14.462,0,0,0,3.888.786A55.188,55.188,0,0,0,157.428,23.264Z" fill="url(#linear-gradient-2)"/><path d="M147.726,8.414a37.961,37.961,0,0,0,3.906-6.072h4.111V8.414ZM134.764,25.029q-1.04,1.249-2.156,2.56a13.556,13.556,0,0,0,.955,1.157q2.038-.729,3.987-1.64a8.272,8.272,0,0,1-1.689-3.67A10.773,10.773,0,0,1,134.764,25.029Zm12.258-13.8a13.833,13.833,0,0,0-1.866.121q-1.2,1.235-2.5,2.36a8.408,8.408,0,0,1,1.374-.115,8.3,8.3,0,0,1,7.056,3.921,46.857,46.857,0,0,0,3.151-3.556,9.7,9.7,0,0,0-2.7-1.825A10.678,10.678,0,0,0,147.022,11.231ZM132.608,27.589c.378-.445.336-.337.683-.749l0-7.193a37.7,37.7,0,0,1-5.775,2.023A34.747,34.747,0,0,1,132.608,27.589Z" fill="url(#linear-gradient-3)"/><path d="M142.657,13.712a8.306,8.306,0,0,0-5.172,3.075l-2.29-2.618,1.266-6.422a29.53,29.53,0,0,0,5.137-5.4h10.034a37.961,37.961,0,0,1-3.906,6.072h-3.969l-.668,3.45a9.116,9.116,0,0,1,2.067-.512Q143.961,12.587,142.657,13.712ZM133.293,10a29.194,29.194,0,0,1-7.189,3.187v7.432a12.241,12.241,0,0,1,1.414,1.051,37.7,37.7,0,0,0,5.775-2.023V10Z" fill="url(#linear-gradient-4)"/><path d="M137.527,2.342H141.6a29.53,29.53,0,0,1-5.137,5.4Zm-4.234,0A14.451,14.451,0,0,1,131.4,3.5q-1.214.635-2.684,1.259a28.172,28.172,0,0,1-2.975,1.074,13.355,13.355,0,0,1-2.771.536v.159a2.568,2.568,0,0,1,1.786.58,3.3,3.3,0,0,1,.923,1.373,5.923,5.923,0,0,1,.353,1.54q.07.732.071,1.083v2.088A29.194,29.194,0,0,0,133.293,10V2.342Z" fill="url(#linear-gradient-5)"/><path d="M151.039,21.9a7.025,7.025,0,1,1-7.021-7.022A7.034,7.034,0,0,1,151.039,21.9Z" fill="url(#linear-gradient-6)"/><path d="M141.268,20.276a8.739,8.739,0,0,1,.916.878,1.716,1.716,0,0,1,.164.2,7.758,7.758,0,0,1,2.592-5.611,6.271,6.271,0,0,0-.91-.069,6.183,6.183,0,0,0-3.534,1.1A4.92,4.92,0,0,1,141.268,20.276Zm.678.068s-.582-.152-.142-.8C142.445,20,141.946,20.344,141.946,20.344Zm2.049-4.3c-.042.784-.6.549-.6.549S143.21,16.021,144,16.045ZM142.407,17.9s-.2-.568.587-.565C142.974,18.12,142.407,17.9,142.407,17.9Zm.259-1.724c.37.693-.232.782-.232.782S141.982,16.562,142.666,16.176Zm-.255,2.348c.266.738-.342.74-.342.74S141.678,18.806,142.411,18.524Zm-.59.021s-.6-.031-.3-.757C142.239,18.1,141.821,18.545,141.821,18.545Zm-.685-1.792c.785.017.567.586.567.586S141.136,17.539,141.136,16.753Z" fill="#e8e9df"/><path d="M141.977,21.343a8.651,8.651,0,0,0-.941-.9,12.427,12.427,0,0,0-2.442-1.569,6.044,6.044,0,0,0-.678,1.845,2.939,2.939,0,0,1,2.165,1.645,1.568,1.568,0,0,1,.2-.032,5.075,5.075,0,0,1,2.681.5A5.948,5.948,0,0,0,141.977,21.343Zm-2.556-1.621c.782.082.517.63.517.63S139.356,20.5,139.421,19.722Zm-1.037.186c.736-.272.743.336.743.336S138.672,20.639,138.384,19.908Zm.7.9c.636-.461.806.123.806.123S139.563,21.436,139.088,20.81Zm1.533,1.012s-.487.353-.71-.4C140.669,21.216,140.621,21.822,140.621,21.822Zm.214-.708s-.581.155-.52-.628C141.1,20.564,140.835,21.114,140.835,21.114Zm.261.468c.737-.272.743.336.743.336S141.385,22.313,141.1,21.582Z" fill="#e8e9df"/><path d="M144.664,24.155h-.013a4.85,4.85,0,0,0-1.858-4.337,4.612,4.612,0,0,0-.113,1.97,4.843,4.843,0,0,1,.935,3.465,3.461,3.461,0,0,1-1.751,2.473,6.113,6.113,0,0,0,4.294.013,4.882,4.882,0,0,1-1.388-2.391A4.719,4.719,0,0,1,144.664,24.155Zm-1.644-3.732c.681.392.218.786.218.786S142.644,21.112,143.02,20.423Zm.573,1.613s-.53.284-.649-.493C143.723,21.442,143.593,22.036,143.593,22.036Zm.281.94s-.493-.346.147-.8C144.463,22.824,143.874,22.976,143.874,22.976Z" fill="#e8e9df"/><path d="M137.878,20.991a6.125,6.125,0,0,0-.075.9,6.35,6.35,0,0,0,.138,1.306,4.956,4.956,0,0,1,1.852-.791A2.651,2.651,0,0,0,137.878,20.991Zm.327,1.056c.554-.557.816-.008.816-.008S138.775,22.588,138.205,22.047Z" fill="#e8e9df"/><path d="M140.27,16.943a6.232,6.232,0,0,0-1.532,1.688,12.727,12.727,0,0,1,2.279,1.438A4.671,4.671,0,0,0,140.27,16.943Zm-.194,1.852s-.485.356-.713-.4C140.119,18.188,140.076,18.8,140.076,18.8Zm.014-1.326c.725.3.316.752.316.752S139.805,18.2,140.09,17.469Zm.594,1.969s-.6-.034-.3-.759C141.1,19,140.684,19.438,140.684,19.438Z" fill="#e8e9df"/><path d="M142.875,19.535a4.651,4.651,0,0,1,2,3.308,4.428,4.428,0,0,1,.433-1c.025-.044.057-.082.082-.126l-.013.006a6.932,6.932,0,0,1,1.256-5.473,5.923,5.923,0,0,0-1.35-.452A8.555,8.555,0,0,0,142.875,19.535Zm1.138.194s-.568.2-.565-.588C144.234,19.162,144.013,19.729,144.013,19.729Zm0-.832s-.537-.271.029-.815C144.574,18.66,144.013,18.9,144.013,18.9Zm.118-1.179s-.092-.595.68-.45C144.649,18.037,144.131,17.718,144.131,17.718Zm.711,1.512c.349.7-.256.774-.256.774S144.146,19.594,144.842,19.23Zm.008,1.905s-.6-.075-.245-.778C145.3,20.724,144.85,21.135,144.85,21.135Zm.968-4.9c-.218.755-.712.4-.712.4S145.058,16.036,145.818,16.237Zm-.508.756c.579.532.04.815.04.815S144.792,17.583,145.31,16.993Zm-.235,1.9s-.589-.123-.182-.795C145.556,18.516,145.075,18.889,145.075,18.889Z" fill="#e8e9df"/><path d="M145.611,21.4a11.775,11.775,0,0,1,1.369-1.487c.282-.277.571-.553.841-.848a5.579,5.579,0,0,0,.891-1.249,6.118,6.118,0,0,0-1.82-1.437A6.614,6.614,0,0,0,145.611,21.4Zm2.731-3.57c-.111.778-.649.493-.649.493S147.562,17.735,148.342,17.829Zm-.809,1.006c-.17.767-.685.443-.685.443S146.762,18.682,147.533,18.835Zm-.739-.285s-.335-.5.426-.7C147.4,18.619,146.794,18.55,146.794,18.55Zm.289-1.682c.34.708-.265.771-.265.771S146.383,17.223,147.083,16.868Zm-.819,1.619c.473.627-.108.808-.108.808S145.647,18.974,146.264,18.487Zm.053,1.037c.22.754-.387.717-.387.717S145.568,19.76,146.317,19.524Z" fill="#e8e9df"/><path d="M149.71,20.081c.076-.044.151-.088.226-.138a6.278,6.278,0,0,0-1.029-1.9,6.308,6.308,0,0,1-.885,1.218c-.27.295-.565.577-.848.853a9.233,9.233,0,0,0-1.625,1.871,4.444,4.444,0,0,0-.465,1.143A6.854,6.854,0,0,1,148.1,21.55,3.767,3.767,0,0,1,149.71,20.081Zm-3.5,1.69s-.058-.6.7-.41C146.714,22.119,146.215,21.771,146.215,21.771Zm2.441-1.446s-.289-.527.486-.655C149.252,20.448,148.656,20.325,148.656,20.325Zm-1.331,1.09s-.384-.464.354-.735C147.933,21.423,147.325,21.415,147.325,21.415Zm.213-1.094s-.1-.594.674-.459C148.06,20.633,147.538,20.321,147.538,20.321Zm1.673-1.359c-.326.715-.763.29-.763.29S148.489,18.652,149.211,18.962Z" fill="#e8e9df"/><path d="M150.018,20.219c-.057.038-.113.069-.163.107a4.191,4.191,0,0,0-1.406,1.148,6.818,6.818,0,0,1,1.776-.087A5.937,5.937,0,0,0,150.018,20.219Zm-.763.831s.081-.477.633-.171C149.57,21.425,149.255,21.05,149.255,21.05Z" fill="#e8e9df"/></g></g></svg>