<svg xmlns="http://www.w3.org/2000/svg" viewBox="0 0 42.941 35.669"><g id="Layer_2" data-name="Layer 2"><g id="Layer_2-2" data-name="Layer 2"><path d="M42.36,15.119H34.124a.58.58,0,0,1-.581-.58V.582A.58.58,0,0,0,32.477.264L19.987,19.383a.581.581,0,0,0,.486.9H28.7a.58.58,0,0,1,.581.58V35.088a.58.58,0,0,0,1.068.314l12.5-19.387A.581.581,0,0,0,42.36,15.119Z" fill="#fff"/><rect x="8.258" width="15.032" height="2.919" rx="1.38" fill="#fff"/><rect y="17.272" width="15.032" height="2.919" rx="1.38" fill="#fff"/><rect x="8.258" y="32.751" width="15.032" height="2.919" rx="1.38" fill="#fff"/></g></g></svg>