<svg width="138" height="40" viewBox="0 0 138 40" fill="none" xmlns="http://www.w3.org/2000/svg">
<g clip-path="url(#clip0_171_1015)">
<path d="M34.9087 16.23H39.2187V39.45H34.9087V16.23Z" fill="white"/>
<path d="M45.4888 16.23H49.7988V39.45H45.4888V16.23Z" fill="white"/>
<path d="M60.4687 38.25C58.5787 37.22 57.0987 35.8 56.0187 33.99C54.9487 32.18 54.4087 30.13 54.4087 27.85C54.4087 25.57 54.9487 23.53 56.0387 21.71C57.1187 19.9 58.6087 18.47 60.4987 17.45C62.3887 16.42 64.5087 15.91 66.8487 15.91C68.7487 15.91 70.4887 16.24 72.0587 16.91C73.6287 17.57 74.9587 18.54 76.0387 19.8L73.2487 22.42C71.5687 20.61 69.4987 19.7 67.0487 19.7C65.4587 19.7 64.0287 20.05 62.7687 20.75C61.5087 21.45 60.5187 22.41 59.8187 23.65C59.1087 24.89 58.7587 26.29 58.7587 27.86C58.7587 29.43 59.1087 30.83 59.8187 32.07C60.5287 33.31 61.5087 34.28 62.7687 34.97C64.0287 35.66 65.4587 36.02 67.0487 36.02C69.4987 36.02 71.5687 35.1 73.2487 33.27L76.0387 35.92C74.9587 37.18 73.6187 38.14 72.0387 38.81C70.4587 39.47 68.7187 39.81 66.8087 39.81C64.4687 39.81 62.3487 39.3 60.4587 38.27L60.4687 38.25Z" fill="white"/>
<path d="M108.389 34.18H104.279V39.46H100.099V34.18H87.3589V31.19L98.8089 16.23H103.419L92.6389 30.53H100.239V25.85H104.289V30.53H108.399V34.18H108.389Z" fill="white"/>
<path d="M111.549 38.9101C111.019 38.3901 110.749 37.7301 110.749 36.9401C110.749 36.1501 111.009 35.4601 111.529 34.9501C112.049 34.4401 112.699 34.1901 113.469 34.1901C114.239 34.1901 114.889 34.4501 115.409 34.9501C115.929 35.4601 116.189 36.1201 116.189 36.9401C116.189 37.7601 115.919 38.3901 115.389 38.9101C114.859 39.4301 114.219 39.6901 113.469 39.6901C112.719 39.6901 112.079 39.4301 111.549 38.9101Z" fill="white"/>
<path d="M123.289 38.38C121.829 37.44 120.679 36.07 119.839 34.27C118.999 32.47 118.579 30.33 118.579 27.85C118.579 25.37 118.999 23.23 119.839 21.43C120.679 19.63 121.829 18.26 123.289 17.32C124.749 16.38 126.409 15.91 128.269 15.91C130.129 15.91 131.789 16.38 133.259 17.32C134.729 18.26 135.889 19.63 136.729 21.43C137.569 23.23 137.989 25.37 137.989 27.85C137.989 30.33 137.569 32.47 136.729 34.27C135.889 36.07 134.729 37.44 133.259 38.38C131.789 39.32 130.119 39.79 128.269 39.79C126.419 39.79 124.749 39.32 123.289 38.38ZM132.199 33.98C133.159 32.61 133.639 30.56 133.639 27.84C133.639 25.12 133.159 23.07 132.199 21.7C131.239 20.33 129.929 19.64 128.269 19.64C126.609 19.64 125.329 20.33 124.369 21.7C123.409 23.07 122.929 25.12 122.929 27.84C122.929 30.56 123.409 32.61 124.369 33.98C125.329 35.35 126.629 36.04 128.269 36.04C129.909 36.04 131.239 35.35 132.199 33.98Z" fill="white"/>
<path d="M29.5087 29.85L24.8587 37.95C24.8587 37.95 24.0987 39.41 22.5587 39.42H17.9287L18.1387 39.1L19.2887 37.34L24.1387 28.96C24.5687 27.98 24.6287 27.09 24.1387 26.33L18.2687 16.18L18.0887 15.86H22.5087C23.4287 15.86 24.2287 16.36 25.0587 17.76L29.4987 25.42C30.6287 27.22 30.4787 28.27 29.4987 29.84L29.5087 29.85Z" fill="white"/>
<path d="M18.519 39.1L19.559 37.51L24.429 29.11V29.09C24.939 27.96 24.929 26.97 24.419 26.16L18.639 16.18H22.509C23.089 16.18 23.869 16.38 24.779 17.93L29.219 25.58C30.319 27.33 30.109 28.26 29.219 29.67L24.559 37.79C24.559 37.79 23.859 39.08 22.539 39.09H18.499L18.519 39.1Z" fill="white"/>
<path d="M26.5187 29.68L21.8587 37.81C21.8587 37.81 21.1987 39.11 19.8387 39.11H18.1387L19.2887 37.35L24.1387 28.97C24.5687 27.99 24.6287 27.1 24.1387 26.34L18.2687 16.19H19.7987C19.9587 16.19 20.9887 16.18 22.0387 17.9V17.92L26.4987 25.59C27.5987 27.34 27.3887 28.27 26.4987 29.68H26.5187Z" fill="white"/>
<path d="M21.789 15.87C21.789 15.87 19.979 16.81 19.999 19.16L18.519 16.9L19.319 15.85L21.789 15.87Z" fill="white"/>
<path d="M21.3486 39.43H15.7186C15.1986 39.43 14.7786 39.3 14.4386 39.12C13.6786 38.72 13.3586 38.08 13.3586 38.08L8.14863 29.15C7.22863 27.55 8.14863 26.17 8.14863 26.17L13.4986 16.92C13.7386 16.57 14.0086 16.34 14.2886 16.18C14.9486 15.8 15.5686 15.84 15.5686 15.84H21.2486C19.6686 15.87 18.8086 17.9 18.8086 17.9L14.1486 26.02C13.0586 27.55 14.1486 29.27 14.1486 29.27L18.7986 37.33C19.8286 39.4 21.2586 39.43 21.3386 39.43H21.3486Z" fill="white"/>
<path d="M18.8989 39.12H15.3989C14.7089 39.12 14.0489 38.77 13.6789 38.18C13.6389 38.11 13.6189 38.07 13.6189 38.07L8.40889 29.14C7.48889 27.54 8.40889 26.16 8.40889 26.16L13.7589 16.91C13.7589 16.91 13.7589 16.91 13.7589 16.9C14.0789 16.43 14.6189 16.17 15.1889 16.17H18.8989C17.5389 16.32 16.7589 17.62 16.6989 17.75L12.0489 25.85C10.8889 27.5 11.9589 29.29 12.0489 29.43L16.6989 37.48C17.0889 38.26 17.9789 38.81 18.8989 39.11V39.12Z" fill="white"/>
<path d="M6.37882 29.67L12.0288 39.44H7.75882C6.85882 39.41 6.19882 38.94 5.67882 38.21L0.438822 29.16C-0.161178 28.13 -0.131178 27.11 0.438822 26.12L5.49882 17.3C6.23882 15.92 7.69882 15.87 7.69882 15.87H12.0288L6.37882 25.57C5.67882 26.96 5.65882 28.32 6.37882 29.67Z" fill="white"/>
<path d="M4.3388 29.64L9.9888 39.25H7.9788C7.0788 39.22 6.4188 38.75 5.8988 38.04L0.668803 29.13C0.0688025 28.12 0.0988026 27.12 0.668803 26.14L5.7288 17.47C6.4688 16.12 7.9288 16.06 7.9288 16.06H9.9988L4.3488 25.6C3.6488 26.96 3.6288 28.31 4.3488 29.64H4.3388Z" fill="white"/>
<path d="M42.01 0.480027C42.47 0.400027 43.07 0.340027 43.83 0.340027C44.77 0.340027 45.45 0.560027 45.89 0.950027C46.29 1.30003 46.53 1.83003 46.53 2.49003C46.53 3.15003 46.33 3.68003 45.96 4.06003C45.46 4.59003 44.64 4.87003 43.71 4.87003C43.43 4.87003 43.17 4.86003 42.95 4.80003V7.74003H42V0.480027H42.01ZM42.96 4.02003C43.17 4.07003 43.43 4.10003 43.75 4.10003C44.89 4.10003 45.59 3.54003 45.59 2.53003C45.59 1.52003 44.9 1.09003 43.86 1.09003C43.45 1.09003 43.13 1.12003 42.97 1.17003V4.02003H42.96Z" fill="white"/>
<path d="M52.2699 5.05998C52.2699 7.00998 50.9199 7.85998 49.6399 7.85998C48.2099 7.85998 47.1099 6.80998 47.1099 5.14998C47.1099 3.37998 48.2699 2.34998 49.7199 2.34998C51.1699 2.34998 52.2599 3.44998 52.2599 5.05998H52.2699ZM48.0899 5.10998C48.0899 6.25998 48.7499 7.13998 49.6899 7.13998C50.6299 7.13998 51.2899 6.27998 51.2899 5.08998C51.2899 4.19998 50.8399 3.05998 49.7099 3.05998C48.5799 3.05998 48.0899 4.10998 48.0899 5.10998Z" fill="white"/>
<path d="M53.7798 2.46002L54.4798 5.14002C54.6298 5.73002 54.7698 6.27002 54.8698 6.82002H54.8998C55.0198 6.29002 55.1898 5.72002 55.3698 5.15002L56.2298 2.46002H57.0398L57.8598 5.10002C58.0598 5.73002 58.2098 6.29002 58.3298 6.82002H58.3598C58.4498 6.29002 58.5898 5.73002 58.7598 5.11002L59.5098 2.46002H60.4598L58.7598 7.73002H57.8898L57.0798 5.21002C56.8998 4.62002 56.7398 4.10002 56.6098 3.48002H56.5898C56.4598 4.11002 56.2998 4.66002 56.1098 5.22002L55.2598 7.73002H54.3898L52.7998 2.46002H53.7798Z" fill="white"/>
<path d="M61.8402 5.26998C61.8602 6.56998 62.6902 7.09998 63.6502 7.09998C64.3402 7.09998 64.7502 6.97998 65.1102 6.82998L65.2702 7.51998C64.9302 7.66998 64.3502 7.84998 63.5202 7.84998C61.9002 7.84998 60.9302 6.77998 60.9302 5.18998C60.9302 3.59998 61.8702 2.34998 63.4002 2.34998C65.1202 2.34998 65.5802 3.85998 65.5802 4.82998C65.5802 5.02998 65.5602 5.17998 65.5502 5.27998H61.8502L61.8402 5.26998ZM64.6502 4.57998C64.6602 3.96998 64.4002 3.01998 63.3202 3.01998C62.3502 3.01998 61.9302 3.90998 61.8502 4.57998H64.6502Z" fill="white"/>
<path d="M66.7602 4.11003C66.7602 3.49003 66.7502 2.96003 66.7202 2.46003H67.5602L67.5902 3.49003H67.6302C67.8702 2.78003 68.4502 2.34003 69.0902 2.34003C69.2002 2.34003 69.2702 2.35003 69.3602 2.37003V3.27003C69.2602 3.25003 69.1602 3.24003 69.0302 3.24003C68.3502 3.24003 67.8702 3.75003 67.7402 4.47003C67.7202 4.60003 67.7002 4.75003 67.7002 4.92003V7.73003H66.7502V4.10003L66.7602 4.11003Z" fill="white"/>
<path d="M70.7498 5.26998C70.7698 6.56998 71.5998 7.09998 72.5598 7.09998C73.2498 7.09998 73.6598 6.97998 74.0198 6.82998L74.1798 7.51998C73.8398 7.66998 73.2598 7.84998 72.4298 7.84998C70.8098 7.84998 69.8398 6.77998 69.8398 5.18998C69.8398 3.59998 70.7798 2.34998 72.3098 2.34998C74.0298 2.34998 74.4898 3.85998 74.4898 4.82998C74.4898 5.02998 74.4698 5.17998 74.4598 5.27998H70.7598L70.7498 5.26998ZM73.5598 4.57998C73.5698 3.96998 73.3098 3.01998 72.2298 3.01998C71.2598 3.01998 70.8398 3.90998 70.7598 4.57998H73.5598Z" fill="white"/>
<path d="M80.2201 0V6.37C80.2201 6.84 80.2301 7.37 80.2601 7.73H79.4001L79.3601 6.81H79.3401C79.0501 7.4 78.4001 7.84 77.5401 7.84C76.2701 7.84 75.2901 6.76 75.2901 5.16C75.2801 3.41 76.3701 2.33 77.6501 2.33C78.4601 2.33 79.0001 2.71 79.2401 3.14H79.2601V0H80.2201ZM79.2601 4.61C79.2601 4.49 79.2501 4.33 79.2201 4.21C79.0801 3.6 78.5601 3.1 77.8401 3.1C76.8501 3.1 76.2601 3.97 76.2601 5.14C76.2601 6.21 76.7801 7.09 77.8201 7.09C78.4601 7.09 79.0501 6.67 79.2301 5.95C79.2601 5.82 79.2701 5.69 79.2701 5.54V4.62L79.2601 4.61Z" fill="white"/>
<path d="M86.3799 7.74C86.3999 7.38 86.4199 6.85 86.4199 6.38V0H87.3699V3.31H87.3899C87.7299 2.72 88.3399 2.34 89.1899 2.34C90.4999 2.34 91.4199 3.43 91.4099 5.03C91.4099 6.92 90.2199 7.85 89.0499 7.85C88.2899 7.85 87.6799 7.56 87.2899 6.86H87.2599L87.2199 7.73H86.3899L86.3799 7.74ZM87.3699 5.63C87.3699 5.75 87.3899 5.87 87.4099 5.98C87.5899 6.64 88.1499 7.1 88.8499 7.1C89.8499 7.1 90.4499 6.28 90.4499 5.07C90.4499 4.01 89.9099 3.11 88.8799 3.11C88.2299 3.11 87.6199 3.56 87.4199 4.29C87.3999 4.4 87.3699 4.53 87.3699 4.68V5.63Z" fill="white"/>
<path d="M92.8999 2.46002L94.0599 5.58002C94.1799 5.93002 94.3099 6.34002 94.3999 6.66002H94.4199C94.5199 6.34002 94.6299 5.94002 94.7599 5.56002L95.8099 2.47002H96.8199L95.3799 6.23002C94.6899 8.04002 94.2199 8.96002 93.5699 9.53002C93.0999 9.94002 92.6299 10.11 92.3899 10.15L92.1499 9.34002C92.3899 9.26002 92.7099 9.11002 92.9899 8.87002C93.2499 8.66002 93.5799 8.29002 93.7999 7.80002C93.8399 7.70002 93.8799 7.63002 93.8799 7.57002C93.8799 7.51002 93.8599 7.44002 93.8099 7.32002L91.8599 2.46002H92.9099H92.8999Z" fill="white"/>
</g>
<defs>
<clipPath id="clip0_171_1015">
<rect width="137.99" height="39.79" fill="white"/>
</clipPath>
</defs>
</svg>
