<svg width="35" height="35" viewBox="0 0 35 35" fill="none" xmlns="http://www.w3.org/2000/svg">
<g clip-path="url(#clip0_212_1227)">
<path d="M35 17.5C35 7.83502 27.165 0 17.5 0C7.83502 0 0 7.83502 0 17.5C0 27.165 7.83502 35 17.5 35C27.165 35 35 27.165 35 17.5Z" fill="white"/>
<path d="M27.7735 19.0794L24.4508 24.8755C24.4508 24.8755 23.907 25.9185 22.8044 25.926H19.4966L19.6456 25.695L20.4725 24.436L23.9442 18.4387C24.2571 17.7384 24.2944 17.0977 23.9442 16.5539L19.7424 9.29015L19.6083 9.06665H22.7746C23.4302 9.06665 24.0038 9.42425 24.5998 10.43L27.7735 15.9057C28.5781 17.1946 28.4738 17.947 27.7735 19.072V19.0794Z" fill="#0E4CA4"/>
<path d="M19.9213 25.7025L20.6663 24.5626L24.1454 18.5505V18.5356C24.5105 17.7235 24.503 17.0232 24.138 16.4421L20.0032 9.29761H22.7746C23.1918 9.29761 23.7506 9.43916 24.3987 10.5492L27.5724 16.0249C28.3621 17.2765 28.2057 17.9396 27.5724 18.9528L24.2348 24.7638C24.2348 24.7638 23.7357 25.6876 22.7895 25.695H19.8989L19.9213 25.7025Z" fill="#1552B5"/>
<path d="M25.6354 18.9602L22.2978 24.7787C22.2978 24.7787 21.821 25.7099 20.8525 25.7099H19.6382L20.4651 24.4509L23.9368 18.4536C24.2497 17.7533 24.287 17.1126 23.9368 16.5688L19.735 9.30505H20.8302C20.9494 9.30505 21.6869 9.29761 22.4319 10.5269V10.5418L25.6205 16.0324C26.4028 17.2914 26.2538 17.947 25.6205 18.9602H25.6354Z" fill="#074695"/>
<path d="M22.2534 9.0741C22.2534 9.0741 20.9571 9.75205 20.972 11.4283L19.9141 9.81165L20.4877 9.0592L22.2534 9.0741Z" fill="#013A78"/>
<path d="M21.9402 25.9409H17.9098C17.5373 25.9409 17.2318 25.844 16.9934 25.7174C16.4496 25.4343 16.2186 24.9724 16.2186 24.9724L12.4862 18.5803C11.8306 17.433 12.4862 16.4496 12.4862 16.4496L16.3155 9.82656C16.4868 9.58071 16.6805 9.40936 16.8817 9.29761C17.351 9.02941 17.798 9.05921 17.798 9.05921H21.8657C20.7333 9.08156 20.1224 10.5343 20.1224 10.5343L16.7848 16.3453C16.0026 17.4404 16.7848 18.6697 16.7848 18.6697L20.115 24.436C20.8525 25.9185 21.8732 25.9409 21.9328 25.9409H21.9402Z" fill="#54C7EF"/>
<path d="M20.1819 25.7174H17.6713C17.1721 25.7174 16.7102 25.4715 16.4421 25.0469C16.4123 25.0022 16.3974 24.9724 16.3974 24.9724L12.6649 18.5803C12.0093 17.433 12.6649 16.4496 12.6649 16.4496L16.4942 9.82655C16.7251 9.4913 17.1125 9.30505 17.5148 9.30505H20.167C19.1911 9.4168 18.6398 10.3406 18.5951 10.4375L15.2724 16.2335C14.438 17.4181 15.2054 18.6995 15.2724 18.7963L18.5951 24.5552C18.8707 25.1139 19.5114 25.5088 20.1745 25.7248L20.1819 25.7174Z" fill="#63B8F2"/>
<path d="M11.2271 18.9528L15.2725 25.9483H12.218C11.5773 25.9259 11.1005 25.5907 10.7355 25.0692L6.98811 18.5877C6.55601 17.8502 6.57836 17.1201 6.98811 16.4123L10.6088 10.1022C11.1452 9.1188 12.1807 9.0741 12.1807 9.0741H15.2799L11.2346 16.0175C10.728 17.0083 10.7206 17.9917 11.2346 18.9528H11.2271Z" fill="#54C7EF"/>
<path d="M9.76675 18.9305L13.8121 25.8068H12.3742C11.7335 25.7845 11.2568 25.4492 10.8917 24.9426L7.14436 18.5654C6.71226 17.8428 6.73461 17.1276 7.14436 16.4273L10.7651 10.2214C11.3015 9.25295 12.337 9.2157 12.337 9.2157H13.8195L9.7742 16.0399C9.26761 17.0158 9.26016 17.9769 9.7742 18.9305H9.76675Z" fill="#63B8F2"/>
</g>
<defs>
<clipPath id="clip0_212_1227">
<rect width="35" height="35" fill="white"/>
</clipPath>
</defs>
</svg>
