<svg xmlns="http://www.w3.org/2000/svg" viewBox="0 0 13.341 14.172"><g id="Layer_2" data-name="Layer 2"><g id="Layer_1-2" data-name="Layer 1"><path d="M10.566,10.762V7.029a3.9,3.9,0,0,0-7.791,0V10.76a1.732,1.732,0,0,0-1.342,1.681v1.731H11.9V12.441A1.731,1.731,0,0,0,10.566,10.762ZM3.8,7.029a2.873,2.873,0,1,1,5.745,0V10.71h-2.2V7.15A.675.675,0,0,0,6,7.15v3.56H3.8Zm7.08,6.12H2.455v-.708a.713.713,0,0,1,.716-.708h6.992a.713.713,0,0,1,.715.708Z" fill="#205bcc"/><path d="M1.882,6.742a.613.613,0,0,0-.62-.6L.6,6.151a.61.61,0,0,0,.018,1.22l.661-.01A.613.613,0,0,0,1.882,6.742Z" fill="#205bcc"/><path d="M2.371,3.348a.61.61,0,1,0,.85-.876l-.474-.46a.61.61,0,0,0-.851.875Z" fill="#205bcc"/><path d="M6.6,1.882a.612.612,0,0,0,.6-.62L7.19.6A.61.61,0,1,0,5.97.619l.01.661A.613.613,0,0,0,6.6,1.882Z" fill="#205bcc"/><path d="M10.869,3.221l.461-.474a.61.61,0,1,0-.876-.85l-.461.474a.61.61,0,0,0,.876.85Z" fill="#205bcc"/><path d="M12.722,5.97l-.661.01a.61.61,0,1,0,.018,1.22l.661-.009a.611.611,0,0,0-.018-1.221Z" fill="#205bcc"/></g></g></svg>