<svg xmlns="http://www.w3.org/2000/svg" viewBox="0 0 13.068 14.172"><g id="Layer_2" data-name="Layer 2"><g id="Layer_1-2" data-name="Layer 1"><path d="M11.087,4.623H9.853v-1.3a3.319,3.319,0,0,0-6.638,0v1.3H1.972A1.979,1.979,0,0,0,0,6.6v5.6a1.975,1.975,0,0,0,1.972,1.973h9.115A1.979,1.979,0,0,0,13.068,12.2V6.6A1.984,1.984,0,0,0,11.087,4.623Zm-7-1.3A2.453,2.453,0,0,1,6.534.869a2.458,2.458,0,0,1,2.45,2.45v1.3h-4.9ZM12.2,12.2a1.109,1.109,0,0,1-1.112,1.1H1.972a1.118,1.118,0,0,1-1.1-1.1V6.6a1.109,1.109,0,0,1,1.1-1.112h9.115A1.113,1.113,0,0,1,12.2,6.6Z" fill="#205bcc"/><circle cx="6.533" cy="9.4" r="1.577" fill="#205bcc"/></g></g></svg>