<svg xmlns="http://www.w3.org/2000/svg" viewBox="0 0 15.72 9.999"><g id="Layer_2" data-name="Layer 2"><g id="Layer_1-2" data-name="Layer 1"><path d="M14.276,3.225H11.628a.641.641,0,0,0,.036-.175V.688a.689.689,0,0,0-1.377,0V3.05a.68.68,0,0,0,.035.175H1.445A1.446,1.446,0,0,0,0,4.67V8.554A1.446,1.446,0,0,0,1.445,10H14.276A1.446,1.446,0,0,0,15.72,8.554V4.67A1.446,1.446,0,0,0,14.276,3.225Zm.417,5.329a.424.424,0,0,1-.417.418H1.445a.418.418,0,0,1-.417-.418V4.67a.418.418,0,0,1,.417-.418H14.276a.418.418,0,0,1,.417.418Z" fill="#205bcc"/><circle cx="3.302" cy="6.612" r="0.742" fill="#205bcc"/><path d="M6.254,5.87A.742.742,0,1,0,7,6.612.743.743,0,0,0,6.254,5.87Z" fill="#205bcc"/></g></g></svg>