<svg xmlns="http://www.w3.org/2000/svg" viewBox="0 0 15.72 14.096"><g id="Layer_2" data-name="Layer 2"><g id="Layer_1-2" data-name="Layer 1"><path d="M14.276,7.321H11.628a.641.641,0,0,0,.036-.175V4.785a.689.689,0,1,0-1.377,0V7.146a.68.68,0,0,0,.035.175H1.445A1.446,1.446,0,0,0,0,8.766V12.65A1.447,1.447,0,0,0,1.445,14.1H14.276A1.447,1.447,0,0,0,15.72,12.65V8.766A1.446,1.446,0,0,0,14.276,7.321Zm.417,5.329a.423.423,0,0,1-.417.418H1.445a.418.418,0,0,1-.417-.418V8.766a.417.417,0,0,1,.417-.417H14.276a.417.417,0,0,1,.417.417Z" fill="#205bcc"/><circle cx="3.302" cy="10.708" r="0.742" fill="#205bcc"/><path d="M6.254,9.966A.742.742,0,1,0,7,10.708.743.743,0,0,0,6.254,9.966Z" fill="#205bcc"/><path d="M9.175,2.558a.51.51,0,1,0,.55.859,2.114,2.114,0,0,1,2.5,0,.51.51,0,0,0,.7-.154.512.512,0,0,0-.155-.7A3.152,3.152,0,0,0,9.175,2.558Z" fill="#205bcc"/><path d="M8.5,1.821a4.225,4.225,0,0,1,4.943,0A.51.51,0,0,0,14,.962a5.227,5.227,0,0,0-6.043,0,.51.51,0,1,0,.55.859Z" fill="#205bcc"/></g></g></svg>