<svg width="145" height="26" viewBox="0 0 145 26" fill="none" xmlns="http://www.w3.org/2000/svg">
<path d="M32.0478 15.217L27.0054 24.0188C26.7564 24.4722 26.3977 24.8558 25.9622 25.1348C25.5267 25.4137 25.0281 25.579 24.5122 25.6156H19.4824L19.7093 25.2696L20.9601 23.3605L26.2308 14.2562C26.4772 13.8195 26.6066 13.3267 26.6066 12.8254C26.6066 12.3241 26.4772 11.8312 26.2308 11.3946L19.8536 0.369955L19.6533 0.0253906H24.4604C25.4591 0.0253906 26.3275 0.570249 27.2281 2.09418L32.0478 10.4085C32.6055 11.0857 32.9104 11.9356 32.9104 12.8128C32.9104 13.69 32.6055 14.5399 32.0478 15.217Z" fill="#EFF3F6"/>
<path d="M20.1211 25.2716L21.2542 23.5432L26.539 14.4206L26.5474 14.4038C26.8171 13.9163 26.9568 13.3677 26.9531 12.8106C26.9494 12.2535 26.8025 11.7067 26.5264 11.2229L20.2528 0.378906H24.4548C25.0823 0.378906 25.9311 0.594609 26.9255 2.27681L31.7438 10.5898C32.2676 11.2118 32.5549 11.9988 32.5549 12.8119C32.5549 13.6251 32.2676 14.4121 31.7438 15.0341L26.6832 23.8583C26.4615 24.255 26.1458 24.5911 25.7639 24.8373C25.3819 25.0835 24.9454 25.2321 24.4926 25.2702L20.1211 25.2716Z" fill="#EFF3F6"/>
<path d="M28.8031 15.0337L23.7425 23.8579C23.5292 24.2612 23.2158 24.6028 22.8324 24.85C22.4491 25.0973 22.0086 25.2418 21.5532 25.2698H19.71L20.9608 23.3607L26.2315 14.2563C26.4778 13.8197 26.6072 13.3269 26.6072 12.8256C26.6072 12.3242 26.4778 11.8314 26.2315 11.3948L19.8542 0.370119H21.5196C21.6975 0.370119 22.8166 0.357512 23.9568 2.226L23.9652 2.24701L28.7989 10.5824C29.3246 11.2046 29.6133 11.9927 29.6141 12.8073C29.6149 13.6219 29.3276 14.4105 28.8031 15.0337Z" fill="#EFF3F6"/>
<path d="M23.6753 0.032663C23.0634 0.403484 22.5608 0.92997 22.2187 1.55842C21.8767 2.18686 21.7075 2.89479 21.7283 3.60997L20.126 1.1532L20.9972 0.0102539L23.6753 0.032663Z" fill="#EFF3F6"/>
<path d="M23.1949 25.6255H17.0824C16.5982 25.6264 16.121 25.5101 15.6916 25.2865C15.2001 25.0304 14.7933 24.6373 14.5206 24.1548L8.86049 14.4495C8.57204 13.9595 8.41992 13.4012 8.41992 12.8325C8.41992 12.2638 8.57204 11.7055 8.86049 11.2154L14.6677 1.16841C14.8886 0.838305 15.1824 0.563263 15.5263 0.364429C15.9489 0.119404 16.4301 -0.00645243 16.9185 0.000254734L23.0899 0.0142617C21.3699 0.0282684 20.4412 2.23572 20.4412 2.23572L15.3764 11.0599C15.0489 11.5906 14.8754 12.2019 14.8754 12.8255C14.8754 13.4491 15.0489 14.0604 15.3764 14.591L20.43 23.3466C21.5463 25.5919 23.1011 25.6255 23.1949 25.6255Z" fill="#EFF3F6"/>
<path d="M20.5251 25.2867H16.7209C16.3495 25.2888 15.9837 25.1966 15.6576 25.0187C15.3316 24.8409 15.056 24.5832 14.8566 24.2698C14.8118 24.1984 14.7908 24.1549 14.7908 24.1549L9.1307 14.4497C8.84182 13.9598 8.68945 13.4014 8.68945 12.8326C8.68945 12.2639 8.84182 11.7055 9.1307 11.2156L14.9365 1.16857L14.9449 1.15737C15.12 0.909784 15.3526 0.708335 15.6226 0.570267C15.8927 0.4322 16.1921 0.361627 16.4954 0.364592H20.5251C20.0264 0.45703 19.5542 0.658678 19.1425 0.955082C18.7309 1.25148 18.3899 1.6353 18.144 2.07901L13.1016 10.8766C12.7355 11.46 12.5413 12.1348 12.5413 12.8235C12.5413 13.5123 12.7355 14.1871 13.1016 14.7705L18.144 23.512C18.679 24.3887 19.5322 25.0246 20.5251 25.2867Z" fill="#EFF3F6"/>
<path d="M6.9272 15.0297L13.0649 25.6467H8.42592C7.97004 25.6228 7.52677 25.4887 7.13403 25.256C6.7413 25.0233 6.4108 24.6989 6.17084 24.3105L0.478528 14.4708C0.165955 13.9775 0 13.4055 0 12.8215C0 12.2375 0.165955 11.6656 0.478528 11.1722L5.97335 1.59307C6.21263 1.15878 6.55489 0.789894 6.97007 0.518808C7.38524 0.247721 7.86064 0.0827323 8.35449 0.0383301H13.0607L6.923 10.5728C6.54338 11.2543 6.34447 12.0216 6.3452 12.8018C6.34594 13.5819 6.5463 14.3489 6.9272 15.0297Z" fill="#EFF3F6"/>
<path d="M4.71946 14.993L10.8586 25.4336H8.67495C8.22131 25.4113 7.77967 25.2803 7.38723 25.0516C6.99478 24.823 6.66302 24.5034 6.41987 24.1198L0.727553 14.4439C0.415799 13.9604 0.25 13.3973 0.25 12.822C0.25 12.2467 0.415799 11.6835 0.727553 11.2L6.22237 1.78051C6.46517 1.35132 6.80888 0.987745 7.22377 0.721241C7.63866 0.454737 8.11222 0.293327 8.60351 0.250977H10.8586L4.71946 10.6159C4.34069 11.2831 4.14157 12.0372 4.14157 12.8045C4.14157 13.5717 4.34069 14.3258 4.71946 14.993Z" fill="#EFF3F6"/>
<path d="M39.5869 1.16406H43.9976V24.9124H39.5869V1.16406Z" fill="#EFF3F6"/>
<path d="M50.4092 1.16406H54.8199V24.9124H50.4092V1.16406Z" fill="#EFF3F6"/>
<path d="M65.7276 23.6741C63.8391 22.6656 62.2658 21.1553 61.181 19.3096C60.0993 17.3938 59.5322 15.2304 59.5352 13.0303C59.5381 10.8302 60.1109 8.66833 61.1978 6.75542C62.2929 4.91344 63.871 3.40609 65.7612 2.39655C67.7582 1.32956 69.9936 0.787357 72.2575 0.820794C74.0821 0.798637 75.8925 1.14498 77.5801 1.83908C79.1534 2.49074 80.5519 3.50253 81.663 4.79309L78.8056 7.47397C78.0106 6.58132 77.0322 5.87072 75.9375 5.39066C74.8427 4.91059 73.6573 4.67237 72.462 4.69224C70.9354 4.66682 69.428 5.03487 68.0849 5.76095C66.8208 6.4488 65.7747 7.47698 65.0651 8.72897C64.3526 10.0535 63.9796 11.5341 63.9796 13.0381C63.9796 14.5422 64.3526 16.0227 65.0651 17.3473C65.7747 18.5993 66.8208 19.6274 68.0849 20.3153C69.428 21.0414 70.9354 21.4094 72.462 21.384C73.6603 21.4028 74.8483 21.1607 75.9437 20.6745C77.0391 20.1884 78.0156 19.4698 78.8056 18.5687L81.663 21.2817C80.5515 22.5739 79.1506 23.5856 77.5745 24.2344C75.8792 24.9274 74.0622 25.2732 72.2309 25.2512C69.9645 25.2853 67.7266 24.7426 65.7276 23.6741Z" fill="#EFF3F6"/>
<path d="M114.733 19.5184H110.531V24.9124H106.256V19.5184H93.2295V16.465L104.933 1.16406H109.65L98.6235 15.787H106.393V11.0024H110.532V15.787H114.734L114.733 19.5184Z" fill="#EFF3F6"/>
<path d="M117.956 24.3526C117.485 23.8961 117.189 23.2902 117.116 22.6388C117.043 21.9875 117.2 21.3311 117.558 20.7822C117.916 20.2333 118.454 19.826 119.079 19.63C119.704 19.434 120.379 19.4616 120.986 19.708C121.593 19.9544 122.096 20.4042 122.408 20.9806C122.72 21.5569 122.822 22.2238 122.697 22.867C122.571 23.5103 122.226 24.0899 121.72 24.5066C121.214 24.9233 120.579 25.1511 119.924 25.151C119.559 25.1575 119.196 25.09 118.858 24.9528C118.52 24.8156 118.213 24.6115 117.956 24.3526Z" fill="#EFF3F6"/>
<path d="M129.965 23.8103C128.411 22.7766 127.186 21.3181 126.437 19.6083C125.532 17.5406 125.093 15.2996 125.148 13.0434C125.092 10.7872 125.532 8.54616 126.437 6.47845C127.187 4.76908 128.411 3.31073 129.965 2.27645C131.498 1.33317 133.263 0.83374 135.063 0.83374C136.863 0.83374 138.628 1.33317 140.161 2.27645C141.723 3.30637 142.954 4.76548 143.707 6.47845C144.612 8.54616 145.052 10.7872 144.996 13.0434C145.051 15.2996 144.612 17.5406 143.707 19.6083C142.955 21.3216 141.723 22.7809 140.161 23.8103C138.627 24.7527 136.863 25.2516 135.063 25.2516C133.263 25.2516 131.499 24.7527 129.965 23.8103ZM139.07 19.3156C140.181 17.4192 140.695 15.2321 140.546 13.0392C140.696 10.8458 140.181 8.65816 139.07 6.76139C138.623 6.11281 138.025 5.58255 137.327 5.21624C136.63 4.84994 135.854 4.65855 135.066 4.65855C134.279 4.65855 133.503 4.84994 132.806 5.21624C132.108 5.58255 131.51 6.11281 131.063 6.76139C129.952 8.65816 129.437 10.8458 129.587 13.0392C129.437 15.2321 129.952 17.4192 131.063 19.3156C131.51 19.9644 132.108 20.495 132.805 20.8615C133.503 21.228 134.279 21.4195 135.066 21.4195C135.854 21.4195 136.63 21.228 137.328 20.8615C138.025 20.495 138.623 19.9644 139.07 19.3156Z" fill="#EFF3F6"/>
</svg>
