<svg xmlns="http://www.w3.org/2000/svg" viewBox="0 0 9.279 12.356"><g id="Layer_2" data-name="Layer 2"><g id="Layer_1-2" data-name="Layer 1"><path d="M6.91,1.821a2.313,2.313,0,0,0-4.575.506V6.17a2.107,2.107,0,0,0,.062.516A2.314,2.314,0,0,0,6.972,6.18V2.348A3.054,3.054,0,0,0,6.91,1.821ZM6.2,4.249c0,.619.011,1.249,0,1.879a1.559,1.559,0,0,1-1.291,1.58,1.532,1.532,0,0,1-1.8-1.487q-.03-1.968,0-3.935A1.531,1.531,0,0,1,4.463.778,1.554,1.554,0,0,1,6.156,1.966,2.179,2.179,0,0,1,6.2,2.42C6.208,3.029,6.2,3.639,6.2,4.249Z" transform="translate(0 0)" fill="#205bcc"/><path d="M9.276,6.19a4.645,4.645,0,0,1-4.235,4.628v1.538H4.276a1.142,1.142,0,0,1-.01-.185c0-.4-.01-.806,0-1.2,0-.125-.031-.176-.165-.2a4.634,4.634,0,0,1-4.018-3.8C.041,6.717.021,6.459,0,6.19H.775A3.867,3.867,0,0,0,2.293,9.238a3.649,3.649,0,0,0,2.407.8A3.788,3.788,0,0,0,7.4,8.9,3.836,3.836,0,0,0,8.522,6.19Z" transform="translate(0 0)" fill="#205bcc"/></g></g></svg>