<svg xmlns="http://www.w3.org/2000/svg" viewBox="0 0 15.202 15.688"><g id="Layer_2" data-name="Layer 2"><g id="Layer_1-2" data-name="Layer 1"><path d="M11.381,0H3.821c-.06,0-.116.015-.176.018S3.529,0,3.469,0H3.3A3.305,3.305,0,0,0,0,3.3v9.084a3.306,3.306,0,0,0,3.3,3.3h.167c.06,0,.117-.015.176-.018s.116.018.176.018h7.56A3.825,3.825,0,0,0,15.2,11.867V3.821A3.825,3.825,0,0,0,11.381,0ZM5.674,12.386a2.2,2.2,0,0,1-2.029,2.186,2.719,2.719,0,0,1-2.547-2.7V3.821a2.719,2.719,0,0,1,2.547-2.7A2.2,2.2,0,0,1,5.674,3.3Zm8.429-.519a2.725,2.725,0,0,1-2.722,2.722H5.911a3.272,3.272,0,0,0,.861-2.2V3.3a3.274,3.274,0,0,0-.861-2.2h5.47A2.726,2.726,0,0,1,14.1,3.821Z" fill="#205bcc"/></g></g></svg>