<svg xmlns="http://www.w3.org/2000/svg" viewBox="0 0 137.987 42.076"><g id="Layer_2" data-name="Layer 2"><g id="Layer_2-2" data-name="Layer 2"><path d="M29.505,33.546l-4.648,8.1a2.847,2.847,0,0,1-2.3,1.47H17.936l.208-.318L19.3,41.044l4.854-8.376a2.685,2.685,0,0,0,0-2.635L18.278,19.884l-.184-.318h4.425c.92,0,1.72.5,2.548,1.905l4.438,7.655A3.481,3.481,0,0,1,29.505,33.546Z" transform="translate(0 -1.412)" fill="#0e4ca4"/><path d="M18.524,42.8l1.043-1.591,4.866-8.4.008-.016a2.993,2.993,0,0,0-.019-2.927l-5.776-9.985h3.873c.578,0,1.36.2,2.274,1.748l4.437,7.653a3.179,3.179,0,0,1,.006,4.093L24.576,41.5a2.553,2.553,0,0,1-2.016,1.3Z" transform="translate(0 -1.412)" fill="#1552b5"/><path d="M26.517,33.377,21.857,41.5a2.444,2.444,0,0,1-2.015,1.3h-1.7L19.3,41.044l4.854-8.376a2.685,2.685,0,0,0,0-2.635L18.278,19.884h1.533c.164,0,1.194-.012,2.243,1.708l.008.019,4.451,7.674A3.18,3.18,0,0,1,26.517,33.377Z" transform="translate(0 -1.412)" fill="#074695"/><path d="M21.792,19.566A3.724,3.724,0,0,0,20,22.859L18.524,20.6l.8-1.051Z" transform="translate(0 -1.412)" fill="#013a78"/><path d="M21.353,43.129H15.725a2.773,2.773,0,0,1-1.28-.311,2.652,2.652,0,0,1-1.078-1.044L8.156,32.84a2.935,2.935,0,0,1,0-2.978l5.346-9.25a2.42,2.42,0,0,1,.791-.741,2.484,2.484,0,0,1,1.282-.335l5.681.013c-1.583.013-2.437,2.045-2.437,2.045l-4.664,8.124a3.091,3.091,0,0,0,0,3.251l4.653,8.061C19.836,43.1,21.267,43.129,21.353,43.129Z" transform="translate(0 -1.412)" fill="#54c7ef"/><path d="M18.9,42.818h-3.5a2.021,2.021,0,0,1-1.715-.937c-.041-.066-.061-.107-.061-.107L8.4,32.84a2.932,2.932,0,0,1,0-2.978l5.345-9.25.007-.011a1.728,1.728,0,0,1,1.428-.729l3.71,0a3.169,3.169,0,0,0-2.2,1.579l-4.648,8.1a3.376,3.376,0,0,0-.005,3.585l4.646,8.049A3.676,3.676,0,0,0,18.9,42.818Z" transform="translate(0 -1.412)" fill="#63b8f2"/><path d="M6.376,33.374l5.651,9.774H7.756a2.6,2.6,0,0,1-2.076-1.23L.44,32.859a2.841,2.841,0,0,1,0-3.037L5.5,21a2.788,2.788,0,0,1,2.2-1.432h4.333l-5.651,9.7A4.211,4.211,0,0,0,6.376,33.374Z" transform="translate(0 -1.412)" fill="#54c7ef"/><path d="M4.344,33.34,10,42.953H7.985a2.613,2.613,0,0,1-2.076-1.21L.669,32.834a2.753,2.753,0,0,1,0-2.986l5.058-8.673a2.8,2.8,0,0,1,2.2-1.408H10L4.344,29.3A4.08,4.08,0,0,0,4.344,33.34Z" transform="translate(0 -1.412)" fill="#63b8f2"/><path d="M34.91,19.932h4.313V43.156H34.91Z" transform="translate(0 -1.412)" fill="#074695"/><path d="M45.493,19.932h4.312V43.156H45.493Z" transform="translate(0 -1.412)" fill="#074695"/><path d="M60.472,41.945a11.384,11.384,0,0,1-4.446-4.263,11.824,11.824,0,0,1-1.609-6.138,11.727,11.727,0,0,1,1.625-6.137,11.492,11.492,0,0,1,4.463-4.264A13.081,13.081,0,0,1,66.858,19.6a13.248,13.248,0,0,1,5.209,1,10.618,10.618,0,0,1,3.981,2.886L73.261,26.1a8.129,8.129,0,0,0-6.2-2.72,8.692,8.692,0,0,0-4.279,1.045,7.535,7.535,0,0,0-2.954,2.9,8.9,8.9,0,0,0,0,8.427,7.533,7.533,0,0,0,2.954,2.9,8.7,8.7,0,0,0,4.279,1.045,8.083,8.083,0,0,0,6.2-2.754l2.787,2.654a10.607,10.607,0,0,1-4,2.886,13.375,13.375,0,0,1-5.226,1A13.084,13.084,0,0,1,60.472,41.945Z" transform="translate(0 -1.412)" fill="#074695"/><path d="M108.394,37.88H104.28v5.276H100.1V37.88H87.36V34.9L98.806,19.932h4.611l-10.782,14.3h7.6V29.553h4.047v4.678h4.114Z" transform="translate(0 -1.412)" fill="#074695"/><path d="M111.545,42.608a2.764,2.764,0,1,1,1.925.78A2.648,2.648,0,0,1,111.545,42.608Z" transform="translate(0 -1.412)" fill="#074695"/><path d="M123.289,42.078a9.521,9.521,0,0,1-3.45-4.114,15.083,15.083,0,0,1-1.26-6.42,15.081,15.081,0,0,1,1.26-6.419,9.515,9.515,0,0,1,3.45-4.114,9.517,9.517,0,0,1,9.97,0,9.467,9.467,0,0,1,3.467,4.114,15.081,15.081,0,0,1,1.261,6.419,15.082,15.082,0,0,1-1.261,6.42,9.473,9.473,0,0,1-3.467,4.114,9.517,9.517,0,0,1-9.97,0Zm8.909-4.4q1.443-2.056,1.443-6.138T132.2,25.407a4.753,4.753,0,0,0-7.83,0q-1.443,2.056-1.443,6.137t1.443,6.138a4.754,4.754,0,0,0,7.83,0Z" transform="translate(0 -1.412)" fill="#074695"/><path d="M3.922,1.63A2.527,2.527,0,0,1,6.766,4.19c0,1.972-1.133,2.746-3.083,2.746H2.43v2.32H.578V1.63Zm-.6,3.9c1.122.011,1.59-.5,1.59-1.3,0-.882-.6-1.21-1.59-1.2H2.43V5.53Z" transform="translate(0 -1.412)" fill="#074695"/><path d="M7.319,6.533a2.587,2.587,0,0,1,2.8-2.833,2.573,2.573,0,0,1,2.766,2.833,2.571,2.571,0,0,1-2.766,2.832A2.585,2.585,0,0,1,7.319,6.533Zm2.789,1.514c.816,0,1.133-.61,1.133-1.514s-.317-1.515-1.133-1.515-1.155.61-1.145,1.515C8.963,7.458,9.3,8.047,10.108,8.047Z" transform="translate(0 -1.412)" fill="#074695"/><path d="M14.746,3.809l.718,3.639h.088l.839-3.639h1.656L19,7.448h.087L19.9,3.809h1.449L20.073,9.256H18.036L17.3,5.77H17.23L16.5,9.256H14.463L13.1,3.809Z" transform="translate(0 -1.412)" fill="#074695"/><path d="M21.519,6.533A2.524,2.524,0,0,1,24.243,3.7c1.8,0,2.658,1.231,2.658,3.171H23.142c.066.871.457,1.241,1.188,1.253a.978.978,0,0,0,1.012-.644H26.89a2.367,2.367,0,0,1-2.626,1.885A2.539,2.539,0,0,1,21.519,6.533Zm3.694-.665c-.165-.7-.513-.926-.993-.926a.971.971,0,0,0-1.023.926Z" transform="translate(0 -1.412)" fill="#074695"/><path d="M27.694,3.809h1.732V4.975h.087a1.674,1.674,0,0,1,1.765-1.221h.5V5.116h-.533c-1.536,0-1.82.818-1.82,1.9V9.256H27.694Z" transform="translate(0 -1.412)" fill="#074695"/><path d="M32.115,6.533A2.524,2.524,0,0,1,34.838,3.7c1.8,0,2.659,1.231,2.659,3.171H33.738c.065.871.457,1.241,1.187,1.253a.979.979,0,0,0,1.013-.644h1.548A2.367,2.367,0,0,1,34.86,9.365,2.539,2.539,0,0,1,32.115,6.533Zm3.693-.665c-.164-.7-.512-.926-.992-.926a.971.971,0,0,0-1.023.926Z" transform="translate(0 -1.412)" fill="#074695"/><path d="M43.835,1.412V9.256H42.1V8.439h-.1a1.652,1.652,0,0,1-1.6.926c-1.645,0-2.276-1.263-2.276-2.832S38.791,3.7,40.4,3.7a1.641,1.641,0,0,1,1.6.948h.1V1.412ZM40.959,8.047c.752-.011,1.132-.589,1.132-1.514s-.359-1.515-1.132-1.515c-.73,0-1.057.61-1.057,1.515S40.24,8.047,40.959,8.047Z" transform="translate(0 -1.412)" fill="#074695"/><path d="M51,4.681h.087A1.637,1.637,0,0,1,52.7,3.7c1.612,0,2.277,1.275,2.277,2.833S54.343,9.365,52.7,9.365a1.637,1.637,0,0,1-1.612-.958H51v.849H49.255V1.412H51Zm1.143,3.366c.719,0,1.057-.61,1.057-1.514s-.326-1.515-1.057-1.515c-.773,0-1.143.6-1.133,1.515S51.39,8.036,52.142,8.047Z" transform="translate(0 -1.412)" fill="#074695"/><path d="M56.65,11.435l.807-2.168L55.19,3.809H57l1.263,3.378h.055l1.318-3.378h1.558l-2.069,5.48-.8,2.146Z" transform="translate(0 -1.412)" fill="#074695"/></g></g></svg>