<svg xmlns="http://www.w3.org/2000/svg" viewBox="0 0 132.976 128.107"><g id="Layer_2" data-name="Layer 2"><g id="Layer_2-2" data-name="Layer 2"><path d="M105.964,38.438a26.957,26.957,0,0,0-5.736.64A33.223,33.223,0,0,0,35.082,26.064c-.611-.033-1.219-.092-1.839-.092a33.243,33.243,0,0,0,0,66.486h72.721a27.01,27.01,0,1,0,0-54.02Z" fill="#fff"/><rect x="102.024" y="96.755" width="10.969" height="32.05" rx="5.484" transform="translate(47.409 -30.975) rotate(20.941)" fill="#87ceeb"/><rect x="13.203" y="96.755" width="10.969" height="32.05" rx="5.484" transform="translate(41.542 0.77) rotate(20.941)" fill="#87ceeb"/><rect x="57.614" y="96.755" width="10.969" height="32.05" rx="5.484" transform="translate(44.475 -15.102) rotate(20.941)" fill="#87ceeb"/></g></g></svg>