<svg width="108" height="92" viewBox="0 0 108 92" fill="none" xmlns="http://www.w3.org/2000/svg">
<g clip-path="url(#clip0_190_2292)">
<path d="M14.6692 6.98819e-06L0.403734 7.61175e-06C0.403734 7.61175e-06 0.336445 0.0346145 0.336445 0.0692215L0.336445 1.74216C0.14579 1.76524 -3.93672e-06 1.9383 -3.92764e-06 2.14597L-3.69767e-06 7.40707C-3.6886e-06 7.61475 0.145791 7.78781 0.336445 7.81089L0.336448 85.9197C0.145794 85.9428 -2.57203e-07 86.1159 -2.48125e-07 86.3236L-1.81555e-08 91.5847C-8.06912e-09 91.8154 0.179439 92 0.403738 92L4.44112 92C4.64299 92 4.81121 91.85 4.83364 91.6539L64.329 91.6539C64.329 91.6539 64.3963 91.6193 64.3963 91.5846L64.3963 90.9616L72.471 90.9616L72.471 91.5846C72.471 91.5846 72.5047 91.6539 72.5383 91.6539L73.4804 91.6539C73.4804 91.6539 73.5477 91.6193 73.5477 91.5846L73.5477 90.9616L81.6224 90.9616L81.6224 91.5846C81.6224 91.5846 81.6561 91.6539 81.6897 91.6539L107.26 91.6539C107.26 91.6539 107.327 91.6193 107.327 91.5846L107.327 90.8924C107.327 90.8924 107.305 90.8232 107.26 90.8232L107.058 90.8232L107.058 90.5463L107.394 90.5463C107.394 90.5463 107.462 90.5117 107.462 90.477L107.462 89.7848L107.462 82.3085L107.462 82.17C107.462 82.17 107.495 82.2393 107.529 82.2393L107.798 82.2393L107.933 82.2393C107.966 82.2393 108 82.2047 108 82.17L108 81.7547C108 81.7547 107.966 81.6855 107.933 81.6855L107.529 81.6855C107.495 81.6855 107.462 81.7201 107.462 81.7547L107.462 81.6162C107.462 81.6162 107.439 81.547 107.394 81.547L106.991 81.547C106.991 81.547 106.923 81.5816 106.923 81.6162L106.923 81.7547C106.923 81.7547 106.89 81.6855 106.856 81.6855L106.654 81.6855L106.654 81.6162C106.654 81.6162 106.621 81.547 106.587 81.547C106.553 81.547 106.52 81.5816 106.52 81.6162L106.52 81.7547C106.52 81.7547 106.553 81.8239 106.587 81.8239L106.789 81.8239L106.789 81.8931L106.789 82.0316L106.789 82.1008L106.587 82.1008C106.587 82.1008 106.52 82.1354 106.52 82.17C106.52 82.2047 106.553 82.2393 106.587 82.2393L106.856 82.2393C106.89 82.2393 106.923 82.2047 106.923 82.17L106.923 82.3085L106.923 89.7848L106.923 90.4078L106.789 90.4078L106.789 89.3694C106.789 89.3694 106.766 89.3002 106.722 89.3002L96.5608 89.3002L96.5607 7.81089C96.7514 7.78781 96.8972 7.61475 96.8972 7.40707L96.8972 4.29195L106.587 4.29195C106.587 4.29195 106.654 4.25733 106.654 4.22271L106.654 0.0692168C106.654 0.0692168 106.632 2.96837e-06 106.587 2.97033e-06L82.228 4.03509e-06L14.6692 6.98819e-06ZM81.6897 90.8232L73.4804 90.8232L73.4243 90.8232L73.5477 88.9772L74.0748 87.0504L75.0168 85.4005L76.2168 83.8776L77.8206 82.7815L79.5589 81.9624L80.9495 81.7547L80.9495 82.0316L80.9495 82.17C80.9495 82.17 80.9832 82.2393 81.0168 82.2393L81.3533 82.2393L81.3533 90.477C81.3533 90.477 81.3869 90.5463 81.4206 90.5463L81.757 90.5463L81.757 90.8232L81.6897 90.8232ZM72.5383 90.8232L64.329 90.8232L64.2617 90.8232L64.2617 90.5463L64.5981 90.5463C64.5981 90.5463 64.6654 90.5117 64.6654 90.477L64.6654 82.3085L64.6654 82.2393L65.0019 82.2393C65.0019 82.2393 65.0692 82.2047 65.0692 82.17L65.0692 81.7547L66.471 81.9624L68.1981 82.7815L69.8019 83.8776L71.0019 85.389L71.9439 87.0389L72.471 88.9541L72.6056 90.8232L72.5383 90.8232ZM64.2617 81.6855L64.5308 81.6855L64.5308 82.2393L64.2617 82.2393L64.2617 81.6855ZM64.9346 82.0316L64.9346 82.1008L64.6654 82.1008L64.6654 81.8239L64.9346 81.8239L64.9346 82.0316ZM64.2617 89.854L64.5308 89.854L64.5308 90.4078L64.2617 90.4078L64.2617 89.854ZM81.757 82.2393L81.4879 82.2393L81.4879 82.17L81.4879 81.7547L81.4879 81.6855L81.757 81.6855L81.757 82.2393ZM81.4879 90.4078L81.4879 89.854L81.757 89.854L81.757 90.4078L81.4879 90.4078ZM81.3533 81.8239L81.3533 82.1008L81.0841 82.1008L81.0841 81.8239L81.3533 81.8239ZM81.8916 90.4078L81.8916 89.7848L81.8916 82.3085L81.8916 82.1008L81.8916 82.17C81.8916 82.2047 81.9252 82.2393 81.9589 82.2393L82.228 82.2393L82.3626 82.2393C82.3626 82.2393 82.4299 82.2047 82.4299 82.17L82.4299 81.7547C82.4299 81.7547 82.3963 81.6855 82.3626 81.6855L81.9589 81.6855C81.9589 81.6855 81.8916 81.7201 81.8916 81.7547L81.8916 81.8239L81.8916 81.6162C81.8916 81.5816 81.8692 81.547 81.8243 81.547L81.4093 81.547L81.0841 81.5932C81.0841 81.5932 81.0505 81.547 81.0168 81.547C80.9832 81.547 80.9495 81.5816 80.9495 81.6162L79.5252 81.8239C79.5252 81.8239 79.5252 81.8239 79.5252 81.8355L77.7645 82.6662L76.1495 83.7738C76.1495 83.7738 76.1383 83.7853 76.1271 83.7853L74.9159 85.3198L73.9626 86.9927L73.4243 88.9541L73.3234 90.4078L72.7178 90.4078L72.6168 88.931L72.0673 86.9812L71.1252 85.3082L69.914 83.7853L69.914 83.7738L68.2766 82.6662L66.5271 81.8355C66.5271 81.8355 66.5159 81.8239 66.5047 81.8239L65.0804 81.6163C65.0804 81.6163 65.0579 81.547 65.0131 81.547C64.9907 81.547 64.957 81.5701 64.957 81.5932L64.6206 81.547L64.2056 81.547C64.2056 81.547 64.1383 81.5816 64.1383 81.6163L64.1383 81.8239L64.071 81.8239C64.071 81.8239 64.0037 81.8585 64.0037 81.8932C64.0037 81.9278 64.0374 81.9624 64.071 81.9624C64.0374 81.9624 64.0037 81.997 64.0037 82.0316C64.0037 82.0662 64.0374 82.1008 64.071 82.1008L64.1383 82.1008L64.1383 82.3085L64.1383 89.7848L64.1383 90.4078L63.8692 90.4078L63.8692 89.3694C63.8692 89.3694 63.8467 89.3002 63.8019 89.3002L49.6037 89.3002L49.6037 83.1392C49.6037 83.1392 49.5813 83.07 49.5364 83.07L47.6972 83.07C47.6636 82.92 47.5514 82.7931 47.3944 82.7931L24.4486 82.7931L24.4486 73.1708C24.4486 73.1708 24.4262 73.1016 24.3813 73.1016L24.2916 73.1016C24.2579 72.9516 24.1458 72.8247 23.9888 72.8247C23.7981 72.8247 23.6523 72.9747 23.6523 73.1708L23.6523 73.24L23.4505 73.24C23.4505 73.24 23.3832 73.2746 23.3832 73.3093L23.3832 89.3002L8.14206 89.3002L8.14206 83.1392C8.14206 83.1392 8.11963 83.07 8.07477 83.07L2.48972 83.07L2.48972 64.2408L23.3495 64.2408L23.3495 65.3484L22.2056 65.3484C22.2056 65.3484 22.1383 65.383 22.1383 65.4176L22.1383 65.9714C22.1383 65.9714 22.172 66.0406 22.2056 66.0406L23.4168 66.0406C23.4168 66.0406 23.4841 66.006 23.4841 65.9714L23.4841 65.4868L23.8878 65.4868L23.8878 65.6945C23.8878 65.6945 23.9215 65.7637 23.9551 65.7637L24.3589 65.7637C24.3589 65.7637 24.4262 65.7291 24.4262 65.6945L24.4262 62.6486C24.4262 62.6486 24.4037 62.5794 24.3589 62.5794L23.9551 62.5794C23.9551 62.5794 23.8878 62.614 23.8878 62.6486L23.8878 62.7178L23.4841 62.7178L23.4841 62.3717C23.4841 62.3717 23.4617 62.3025 23.4168 62.3025L14.1308 62.3025C14.1308 62.3025 14.0635 62.3371 14.0635 62.3717C14.0635 62.4063 14.0972 62.4409 14.1308 62.4409L14.6019 62.4409L14.6019 62.7178L14.1308 62.7178C14.1308 62.7178 14.0635 62.7524 14.0635 62.7871C14.0635 62.8217 14.0972 62.8563 14.1308 62.8563L14.6019 62.8563L14.6019 62.9947L2.48972 62.9947L2.48972 9.55305L14.6692 9.55305C14.6692 9.55305 14.7364 9.51844 14.7364 9.48383L14.7364 4.29195L15.0729 4.29195L22.4748 4.29195L23.2822 4.29195L30.6841 4.29195L31.4916 4.29195L38.8935 4.29195L39.7009 4.29195L46.9682 4.29195L49.929 4.29195L57.1963 4.29195L58.0037 4.29195L65.4056 4.29195L66.2131 4.29195L73.6149 4.29195L74.4224 4.29195L81.8243 4.29195L92.0523 4.29195L92.0523 7.40707C92.0523 7.63782 92.2318 7.82242 92.4561 7.82242L94.4075 7.82242L94.4075 86.3235L92.4561 86.3235L92.4561 89.3002L82.228 89.3002C82.228 89.3002 82.1608 89.3348 82.1608 89.3694L82.1608 90.4078L81.8916 90.4078ZM82.1608 82.1008L82.0262 82.1008L82.0262 81.8239L82.1608 81.8239L82.1608 82.1008ZM23.3495 65.4868L23.3495 65.9022L22.2729 65.9022L22.2729 65.4868L23.3495 65.4868ZM23.9551 65.3484L24.2916 65.3484L24.2916 65.6253L24.0224 65.6253L24.0224 65.4176C24.0224 65.4176 24 65.3484 23.9551 65.3484ZM23.4841 73.3785L23.6187 73.3785L23.6187 73.5169L23.4841 73.5169L23.4841 73.3785ZM92.086 1.98445L91.985 2.04213L91.985 1.6614L92.3327 1.6614L92.243 1.79985C92.1757 1.83446 92.1196 1.90369 92.086 1.98445ZM96.6168 1.7537L96.5832 1.6614L96.9645 1.6614L96.9645 2.05368L96.8748 2.01906C96.8411 1.89215 96.7402 1.7883 96.6168 1.7537ZM97.0991 1.6614L97.4467 1.6614L97.2561 1.94983L97.0991 2.04213L97.0991 1.6614ZM97.0991 1.52295L97.0991 1.15375L97.2561 1.23452L97.4467 1.52295L97.0991 1.52295ZM96.9645 1.52295L96.5832 1.52295L96.6841 1.23452L96.9645 1.14221L96.9645 1.52295ZM91.985 1.52295L91.985 1.15375L92.1421 1.23452L92.3327 1.52295L91.985 1.52295ZM91.8505 1.52295L91.4692 1.52295L91.5701 1.23452L91.8505 1.14221L91.8505 1.52295ZM91.8505 1.6614L91.8505 2.05368L91.5701 1.94983L91.4692 1.6614L91.8505 1.6614ZM97.3121 2.07675L97.3346 2.07675C97.3346 2.07675 97.357 2.05368 97.357 2.04213L97.6262 1.62678C97.6262 1.62678 97.6374 1.60371 97.6374 1.59217L97.6374 1.55756L97.357 1.14221C97.357 1.13067 97.3458 1.11914 97.3346 1.11914L97.3121 1.11914L104.636 1.1076L104.636 2.07675L97.3121 2.07675ZM96.5607 1.15375L96.5607 1.1076L96.6056 1.1076C96.6056 1.1076 96.572 1.13067 96.5607 1.15375ZM92.3888 1.1076L92.3888 1.36142L92.243 1.14221C92.243 1.14221 92.2318 1.11914 92.2206 1.11914L92.1981 1.11914L92.3888 1.1076ZM91.4916 1.1076C91.4916 1.1076 91.4579 1.13067 91.4467 1.15375L91.3121 1.5691L91.3121 1.61525L91.4467 2.03059C91.4467 2.03059 91.4692 2.06521 91.4916 2.07675L84.314 2.07675L84.314 1.1076L91.4916 1.1076ZM82.1607 4.1535L81.8916 4.1535L81.8916 3.18435L82.1607 3.18435L82.1607 4.1535ZM57.6673 4.1535L57.6673 3.18435L57.9364 3.18435L57.9364 4.1535L57.6673 4.1535ZM22.9458 4.1535L22.9458 3.18435L23.215 3.18435L23.215 4.1535L22.9458 4.1535ZM14.7364 4.1535L14.7364 3.18435L15.0056 3.18435L15.0056 4.1535L14.7364 4.1535ZM39.7682 3.8766L39.7682 3.5997L46.9009 3.5997L46.9009 3.8766L39.7682 3.8766ZM39.7682 3.46125L39.7682 3.18435L46.9009 3.18435L46.9009 3.46125L39.7682 3.46125ZM31.5589 3.8766L31.5589 3.5997L38.8262 3.5997L38.8262 3.8766L31.5589 3.8766ZM31.5589 3.46125L31.5589 3.18435L38.8262 3.18435L38.8262 3.46125L31.5589 3.46125ZM30.6168 3.5997L30.6168 3.8766L23.3495 3.8766L23.3495 3.5997L30.6168 3.5997ZM22.4075 3.5997L22.4075 3.8766L15.1402 3.8766L15.1402 3.5997L22.4075 3.5997ZM22.4075 3.18435L22.4075 3.46125L15.1402 3.46125L15.1402 3.18435L22.4075 3.18435ZM30.6168 3.18435L30.6168 3.46125L23.3495 3.46125L23.3495 3.18435L30.6168 3.18435ZM47.3047 2.2152L47.3047 3.0459L39.7009 3.0459L31.4916 3.0459L30.6841 3.0459L22.4748 3.04591L14.7364 3.04591L14.7364 2.2152L47.3047 2.2152ZM15.1402 4.01505L22.4075 4.01505L22.4075 4.1535L15.1402 4.1535L15.1402 4.01505ZM22.5421 3.18435L22.8112 3.18435L22.8112 4.1535L22.5421 4.1535L22.5421 3.18435ZM23.3495 4.01505L30.6168 4.01505L30.6168 4.1535L23.3495 4.1535L23.3495 4.01505ZM30.7514 3.18435L31.0206 3.18435L31.0206 4.1535L30.7514 4.1535L30.7514 3.18435ZM31.1551 3.18435L31.4243 3.18435L31.4243 3.53047L31.4243 3.94582L31.4243 4.1535L31.1551 4.1535L31.1551 3.18435ZM31.5589 4.1535L31.5589 4.01505L38.8262 4.01505L38.8262 4.1535L31.5589 4.1535ZM38.9607 4.1535L38.9607 3.18435L39.2299 3.18435L39.2299 4.1535L38.9607 4.1535ZM39.3645 3.18435L39.6336 3.18435L39.6336 3.53047L39.6336 3.94582L39.6336 4.1535L39.3645 4.1535L39.3645 3.18435ZM39.7682 4.1535L39.7682 4.01505L46.9009 4.01505L46.9009 4.1535L39.7682 4.1535ZM47.0355 3.18435L47.3047 3.18435L47.3047 4.1535L47.0355 4.1535L47.0355 3.18435ZM49.5925 4.1535L49.5925 3.18435L49.8617 3.18435L49.8617 4.1535L49.5925 4.1535ZM57.129 3.46125L49.9963 3.46125L49.9963 3.18435L57.129 3.18435L57.129 3.46125ZM57.129 3.5997L57.129 3.8766L49.9963 3.8766L49.9963 3.5997L57.129 3.5997ZM49.9963 4.01505L57.129 4.01505L57.129 4.1535L49.9963 4.1535L49.9963 4.01505ZM57.2635 3.18435L57.5327 3.18435L57.5327 4.1535L57.2635 4.1535L57.2635 3.18435ZM65.3383 3.46125L58.071 3.46125L58.071 3.18435L65.3383 3.18435L65.3383 3.46125ZM65.3383 3.5997L65.3383 3.8766L58.071 3.8766L58.071 3.5997L65.3383 3.5997ZM58.071 4.01505L65.3383 4.01505L65.3383 4.1535L58.071 4.1535L58.071 4.01505ZM65.4729 3.18435L65.7421 3.18435L65.7421 4.1535L65.4729 4.1535L65.4729 3.18435ZM65.8766 3.18435L66.1458 3.18435L66.1458 3.53047L66.1458 3.94582L66.1458 4.1535L65.8766 4.1535L65.8766 3.18435ZM73.5477 3.46125L66.2804 3.46125L66.2804 3.18435L73.5477 3.18435L73.5477 3.46125ZM66.2804 3.8766L66.2804 3.5997L73.5477 3.5997L73.5477 3.8766L66.2804 3.8766ZM66.2804 4.1535L66.2804 4.01505L73.5477 4.01505L73.5477 4.1535L66.2804 4.1535ZM73.6822 4.1535L73.6822 3.18435L73.9514 3.18435L73.9514 4.1535L73.6822 4.1535ZM74.086 3.18435L74.3551 3.18435L74.3551 3.53047L74.3551 3.94582L74.3551 4.1535L74.086 4.1535L74.086 3.18435ZM81.757 3.46125L74.4897 3.46125L74.4897 3.18435L81.757 3.18435L81.757 3.46125ZM74.4897 3.8766L74.4897 3.5997L81.757 3.5997L81.757 3.8766L74.4897 3.8766ZM74.4897 4.1535L74.4897 4.01505L81.757 4.01505L81.757 4.1535L74.4897 4.1535ZM47.3047 2.07675L14.7364 2.07675L14.7364 0.13845L47.3047 0.138449L47.3047 2.07675ZM4.63177 1.94984L4.56448 1.7537L4.53084 1.6614L4.91215 1.6614L4.91215 2.05368L4.82243 2.01907L4.63177 1.94984ZM5.04673 1.52296L5.04673 1.13068L5.3271 1.23452L5.42803 1.52296L5.04673 1.52296ZM5.4056 2.07675C5.4056 2.07675 5.43925 2.05367 5.45046 2.03059L5.58504 1.61526L5.58504 1.5691L5.45046 1.15375C5.45046 1.15375 5.42803 1.11914 5.4056 1.1076L12.5832 1.1076L12.5832 2.07675L5.4056 2.07675ZM5.04673 2.05368L5.04673 1.6614L5.42803 1.6614L5.3271 1.94984L5.04673 2.05368ZM4.91215 1.52296L4.53084 1.52296L4.63177 1.23452L4.91215 1.13068L4.91215 1.52296ZM2.48972 4.29195L13.6598 4.29195L13.6598 8.307L2.48972 8.307L2.48972 4.29195ZM23.3495 62.8563L23.3495 62.9947L16.957 62.9947L15.5439 62.9947L15.5439 62.8563L23.3495 62.8563ZM15.4093 62.8563L15.4093 62.9947L15.2748 62.9947L15.2748 62.8563L15.4093 62.8563ZM47.3047 83.4853L47.3047 89.3002L24.4262 89.3002L24.4262 83.4853L47.3047 83.4853ZM4.44112 89.3002L2.48972 89.3002L2.48972 84.1776L6.93084 84.1776L6.93084 89.3002L4.44112 89.3002ZM23.4841 62.9947L23.4841 62.8563L23.9551 62.8563C23.9551 62.8563 24.0224 62.8217 24.0224 62.7871L24.0224 62.7178L24.2916 62.7178L24.2916 62.9947L23.4841 62.9947ZM22.2729 62.7178L22.2729 62.4409L23.3495 62.4409L23.3495 62.7178L22.2729 62.7178ZM22.1383 62.5794L15.9477 62.5794L15.9477 62.4409L22.1383 62.4409L22.1383 62.5794ZM15.8131 62.4409L15.8131 62.7178L14.7364 62.7178L14.7364 62.4409L15.8131 62.4409ZM15.1402 62.8563L15.1402 62.9947L14.7364 62.9947L14.7364 62.8563L15.1402 62.8563ZM82.1607 3.0459L74.4224 3.0459L66.2131 3.0459L65.4056 3.0459L57.1963 3.0459L49.5925 3.0459L49.5925 2.2152L82.1607 2.2152L82.1607 3.0459ZM49.5925 2.07675L49.5925 0.138448L82.1607 0.138447L82.1607 2.07675L49.5925 2.07675ZM63.8579 91.5154L63.8579 90.5463L64.1271 90.5463L64.1271 90.8924C64.1271 90.8924 64.1608 90.9616 64.1944 90.9616L64.2617 90.9616L64.2617 91.5154L63.8579 91.5154ZM72.6056 90.9616L72.6729 90.9616C72.6729 90.9616 72.7065 90.9616 72.7178 90.9501C72.7178 90.9501 72.7178 90.9385 72.729 90.9385C72.729 90.9385 72.7402 90.927 72.7402 90.9039L72.7402 90.5578L72.8748 90.5578L72.8748 91.5154L72.6056 91.5154L72.6056 90.9616ZM73.1439 91.5154L73.1439 90.5463L73.2785 90.5463L73.2785 90.9039C73.2785 90.9039 73.2897 90.927 73.3009 90.9385L73.3009 90.9501C73.3009 90.9501 73.3234 90.9616 73.3458 90.9616L73.4131 90.9616L73.4131 91.5154L73.1439 91.5154ZM81.757 91.5154L81.757 90.9616L81.8243 90.9616C81.8243 90.9616 81.8916 90.927 81.8916 90.8924L81.8916 90.5463L82.1608 90.5463L82.1608 91.5154L81.757 91.5154ZM107.327 89.854L107.327 90.4078L107.058 90.4078L107.058 89.854L107.327 89.854ZM107.731 82.1008L107.596 82.1008L107.596 81.8239L107.731 81.8239L107.731 82.1008ZM107.327 82.2393L107.058 82.2393L107.058 81.6855L107.327 81.6855L107.327 82.2393ZM107.193 82.3777L107.193 89.7156L107.058 89.7156L107.058 82.3777L107.193 82.3777ZM106.923 90.5463L106.923 90.8924C106.923 90.8924 106.957 90.9616 106.991 90.9616L107.193 90.9616L107.193 91.5154L106.789 91.5154L106.789 90.5463L106.923 90.5463Z" fill="white"/>
<path d="M63.7236 82.17C63.7236 82.17 63.7573 82.2393 63.7909 82.2393L64.0601 82.2393C64.0601 82.2393 64.1274 82.2046 64.1274 82.17C64.1274 82.1354 64.1049 82.1008 64.0601 82.1008L63.7909 82.1008C63.7909 82.1008 63.7236 82.1354 63.7236 82.17Z" fill="#205BCC"/>
<rect x="6" y="12" width="9" height="20" rx="2" fill="white"/>
<rect x="29" y="12" width="9" height="20" rx="2" fill="white"/>
<rect x="52" y="12" width="9" height="20" rx="2" fill="white"/>
<rect x="75" y="12" width="9" height="20" rx="2" fill="white"/>
<rect x="6" y="36" width="9" height="20" rx="2" fill="white"/>
<rect x="29" y="36" width="9" height="20" rx="2" fill="white"/>
<rect x="52" y="36" width="9" height="20" rx="2" fill="white"/>
<rect x="75" y="36" width="9" height="20" rx="2" fill="white"/>
<circle cx="20" cy="16" r="2" fill="white"/>
<circle cx="20" cy="41" r="2" fill="white"/>
<circle cx="43" cy="16" r="2" fill="white"/>
<circle cx="43" cy="41" r="2" fill="white"/>
<circle cx="66" cy="16" r="2" fill="white"/>
<circle cx="66" cy="41" r="2" fill="white"/>
<circle cx="89" cy="16" r="2" fill="white"/>
<circle cx="89" cy="41" r="2" fill="white"/>
<circle cx="20" cy="27" r="2" fill="white"/>
<circle cx="20" cy="52" r="2" fill="white"/>
<circle cx="43" cy="27" r="2" fill="white"/>
<circle cx="43" cy="52" r="2" fill="white"/>
<circle cx="66" cy="27" r="2" fill="white"/>
<circle cx="66" cy="52" r="2" fill="white"/>
<circle cx="89" cy="27" r="2" fill="white"/>
<circle cx="89" cy="52" r="2" fill="white"/>
</g>
<defs>
<clipPath id="clip0_190_2292">
<rect width="92" height="108" fill="white" transform="translate(0 92) rotate(-90)"/>
</clipPath>
</defs>
</svg>
