<svg xmlns="http://www.w3.org/2000/svg" viewBox="0 0 20.796 23.006"><g id="Layer_2" data-name="Layer 2"><g id="Layer_1-2" data-name="Layer 1"><path d="M10.4,23.006A3.163,3.163,0,0,1,7.469,21.1l-.648-1.471a1.623,1.623,0,0,0-1.668-.963l-1.6.174A3.2,3.2,0,0,1,.626,13.763l.949-1.3a1.623,1.623,0,0,0,0-1.926l-.949-1.3A3.2,3.2,0,0,1,3.555,4.17l1.6.173a1.624,1.624,0,0,0,1.668-.962l.648-1.472a3.2,3.2,0,0,1,5.858,0l.649,1.472a1.623,1.623,0,0,0,1.668.962l1.6-.173a3.2,3.2,0,0,1,2.929,5.073l-.95,1.3a1.626,1.626,0,0,0,0,1.926l.95,1.3a3.2,3.2,0,0,1-2.929,5.073l-1.6-.174a1.626,1.626,0,0,0-1.668.963L13.327,21.1A3.162,3.162,0,0,1,10.4,23.006ZM5.335,17.082a3.188,3.188,0,0,1,2.923,1.91l.649,1.471a1.63,1.63,0,0,0,2.983,0l.649-1.471A3.192,3.192,0,0,1,15.814,17.1l1.6.174A1.631,1.631,0,0,0,18.9,14.691l-.95-1.3a3.19,3.19,0,0,1,0-3.782l.95-1.3a1.631,1.631,0,0,0-1.492-2.584l-1.6.174a3.189,3.189,0,0,1-3.275-1.891L11.89,2.543a1.63,1.63,0,0,0-2.983,0L8.258,4.014A3.193,3.193,0,0,1,4.983,5.905l-1.6-.174A1.631,1.631,0,0,0,1.893,8.315l.95,1.3a3.193,3.193,0,0,1,0,3.782l-.95,1.3a1.631,1.631,0,0,0,1.492,2.584l1.6-.174A3.22,3.22,0,0,1,5.335,17.082Z" fill="#205bcc"/><path d="M10.4,16.109A4.607,4.607,0,1,1,15.005,11.5,4.611,4.611,0,0,1,10.4,16.109Zm0-7.642A3.036,3.036,0,1,0,13.434,11.5,3.04,3.04,0,0,0,10.4,8.467Z" fill="#205bcc"/></g></g></svg>