<svg xmlns="http://www.w3.org/2000/svg" viewBox="0 0 132.976 155.789"><g id="Layer_2" data-name="Layer 2"><g id="Layer_2-2" data-name="Layer 2"><path d="M105.964,38.438a26.957,26.957,0,0,0-5.736.64A33.223,33.223,0,0,0,35.082,26.064c-.611-.033-1.219-.092-1.839-.092a33.243,33.243,0,0,0,0,66.486h72.721a27.01,27.01,0,1,0,0-54.02Z" fill="#fff"/><rect x="109.173" y="104.869" width="10.969" height="32.05" rx="5.484" transform="translate(50.781 -32.994) rotate(20.941)" fill="#87ceeb"/><rect x="13.203" y="104.869" width="10.969" height="32.05" rx="5.484" transform="translate(44.442 1.306) rotate(20.941)" fill="#87ceeb"/><path d="M90.569,116.356h-15.8a1.115,1.115,0,0,1-1.116-1.113v-9.676H55.686L47.637,124.54a1.113,1.113,0,0,0,.934,1.721H64.358a1.116,1.116,0,0,1,1.115,1.116v27.3a1.114,1.114,0,0,0,2.05.6l23.98-37.2A1.113,1.113,0,0,0,90.569,116.356Z" fill="#fff173"/></g></g></svg>