<svg xmlns="http://www.w3.org/2000/svg" viewBox="0 0 134.807 155.789"><g id="Layer_2" data-name="Layer 2"><g id="Layer_2-2" data-name="Layer 2"><path d="M88.121,116.356h-15.8a1.115,1.115,0,0,1-1.116-1.113v-9.676H53.237L45.188,124.54a1.113,1.113,0,0,0,.934,1.721H61.909a1.116,1.116,0,0,1,1.116,1.116v27.3a1.113,1.113,0,0,0,2.049.6l23.981-37.2A1.114,1.114,0,0,0,88.121,116.356Z" fill="#fff173"/><path d="M107.423,38.967a27.361,27.361,0,0,0-5.815.649A33.681,33.681,0,0,0,35.565,26.423c-.619-.033-1.236-.094-1.864-.094a33.7,33.7,0,0,0,0,67.4h73.722a27.383,27.383,0,1,0,0-54.765Z" fill="#fff"/></g></g></svg>