<svg xmlns="http://www.w3.org/2000/svg" viewBox="0 0 145.075 145.069"><g id="Layer_2" data-name="Layer 2"><g id="Layer_2-2" data-name="Layer 2"><circle cx="72.561" cy="72.538" r="36.207" fill="#fff173"/><rect x="68.243" y="118.89" width="7.962" height="26.179" rx="3.981" transform="translate(143.753 264.337) rotate(-179.698)" fill="#fff173"/><rect x="26.304" y="101.263" width="7.962" height="26.179" rx="3.981" transform="translate(-29.698 216.313) rotate(-134.699)" fill="#fff173"/><rect x="9.108" y="59.14" width="7.962" height="26.179" rx="3.981" transform="translate(-59.208 84.938) rotate(-89.699)" fill="#fff173"/><rect x="26.74" y="17.195" width="7.962" height="26.179" rx="3.981" transform="translate(-12.417 30.367) rotate(-44.699)" fill="#fff173"/><rect x="68.869" width="7.962" height="26.179" rx="3.981" transform="translate(0.07 -0.382) rotate(0.301)" fill="#fff173"/><rect x="110.815" y="17.631" width="7.962" height="26.179" rx="3.981" transform="translate(55.888 -72.487) rotate(45.302)" fill="#fff173"/><rect x="128.004" y="59.76" width="7.962" height="26.179" rx="3.981" transform="translate(205.527 -58.751) rotate(90.301)" fill="#fff173"/><rect x="110.367" y="101.7" width="7.962" height="26.179" rx="3.981" transform="translate(276.369 115.954) rotate(135.301)" fill="#fff173"/></g></g></svg>