<svg xmlns="http://www.w3.org/2000/svg" viewBox="0 0 13.068 14.171"><g id="Layer_2" data-name="Layer 2"><g id="Layer_1-2" data-name="Layer 1"><path d="M11.087,4.622H9.853v0H8.984v0h-4.9v-1.3A2.453,2.453,0,0,1,6.535.869,2.434,2.434,0,0,1,8.961,3.087h.006a.425.425,0,0,0,.849,0H9.83a3.311,3.311,0,0,0-6.615.232v1.3H1.973A1.98,1.98,0,0,0,0,6.6v5.6a1.975,1.975,0,0,0,1.973,1.972h9.114A1.979,1.979,0,0,0,13.068,12.2V6.6A1.984,1.984,0,0,0,11.087,4.622ZM12.2,12.2a1.109,1.109,0,0,1-1.112,1.1H1.973a1.118,1.118,0,0,1-1.1-1.1V6.6a1.109,1.109,0,0,1,1.1-1.111h9.114A1.113,1.113,0,0,1,12.2,6.6Z" fill="#205bcc"/></g></g></svg>