<svg xmlns="http://www.w3.org/2000/svg" viewBox="0 0 49.527 36.432"><g id="Layer_2" data-name="Layer 2"><g id="Layer_2-2" data-name="Layer 2"><path d="M22.933,10.529a10.7,10.7,0,0,0-5.679-1.964c-2.265.046-4.079,1.208-5.834,2.335a16.2,16.2,0,0,1-3.044,1.668,7.063,7.063,0,0,1-6.5-.95l-.008.008a1.238,1.238,0,0,0-.594-.168A1.274,1.274,0,0,0,0,12.732a1.256,1.256,0,0,0,.881,1.194,9.48,9.48,0,0,0,5.152,1.545,9.338,9.338,0,0,0,3.2-.561A18.285,18.285,0,0,0,12.766,13c1.532-.982,2.975-1.908,4.536-1.94,1.479-.106,2.95.753,4.386,1.627Z" fill="#f8f8f8"/><path d="M18.851,18.989a6.681,6.681,0,0,0-1.6-.157c-2.265.047-4.079,1.209-5.834,2.335a16.085,16.085,0,0,1-3.044,1.668,7.059,7.059,0,0,1-6.5-.949l-.008.008a1.238,1.238,0,0,0-.594-.168A1.273,1.273,0,0,0,0,23a1.257,1.257,0,0,0,.881,1.194,9.48,9.48,0,0,0,5.152,1.545,9.338,9.338,0,0,0,3.2-.561,18.339,18.339,0,0,0,3.533-1.912c1.532-.982,2.975-1.909,4.536-1.94a3.934,3.934,0,0,1,1.141.1A16.775,16.775,0,0,1,18.851,18.989Z" fill="#f8f8f8"/><path d="M20.678,31.489a17.572,17.572,0,0,1-.994-2.008,7.144,7.144,0,0,0-2.43-.381c-2.265.047-4.079,1.209-5.834,2.335A16.085,16.085,0,0,1,8.376,33.1a7.062,7.062,0,0,1-6.5-.949l-.008.008a1.238,1.238,0,0,0-.594-.168A1.273,1.273,0,0,0,0,33.267a1.259,1.259,0,0,0,.881,1.2,9.48,9.48,0,0,0,5.152,1.545,9.338,9.338,0,0,0,3.2-.561,18.394,18.394,0,0,0,3.533-1.912c1.532-.982,2.975-1.909,4.536-1.94,1.564-.112,3.118.854,4.631,1.776A17.376,17.376,0,0,1,20.678,31.489Z" fill="#f8f8f8"/><path d="M49.527,23.372a13.05,13.05,0,1,1-24.36-6.5l8.97-15.529a2.683,2.683,0,0,1,4.649,0l8.971,15.529A12.969,12.969,0,0,1,49.527,23.372Z" fill="#fff"/></g></g></svg>