<svg xmlns="http://www.w3.org/2000/svg" viewBox="0 0 28.085 20.546"><g id="Layer_2" data-name="Layer 2"><g id="Layer_1-2" data-name="Layer 1"><path d="M23.479,12.045a1.056,1.056,0,0,1-.751-.312,12.3,12.3,0,0,0-17.371,0,1.061,1.061,0,0,1-1.5-1.5,14.4,14.4,0,0,1,20.373,0,1.063,1.063,0,0,1-.75,1.813Z" fill="#1a56c1"/><path d="M1.062,7.492A1.063,1.063,0,0,1,.311,5.679a19.44,19.44,0,0,1,27.463,0,1.061,1.061,0,0,1-1.5,1.5,17.32,17.32,0,0,0-24.461,0A1.054,1.054,0,0,1,1.062,7.492Z" fill="#1a56c1"/><path d="M19.645,15.836a1.055,1.055,0,0,1-.751-.311,6.871,6.871,0,0,0-9.7,0,1.061,1.061,0,1,1-1.5-1.5,8.992,8.992,0,0,1,12.7,0,1.062,1.062,0,0,1-.75,1.812Z" fill="#1a56c1"/><circle cx="14.042" cy="18.808" r="1.737" fill="#1a56c1"/></g></g></svg>