<svg xmlns="http://www.w3.org/2000/svg" viewBox="0 0 46.432 36.191"><g id="Layer_2" data-name="Layer 2"><g id="Layer_2-2" data-name="Layer 2"><path d="M45.22,14.7l-6.8-11.732C37.148.817,35.923.049,34.512.049H27.731l.282.486,9,15.556a4.114,4.114,0,0,1,0,4.038L29.573,32.966,27.808,35.66l-.32.488h7.09A4.366,4.366,0,0,0,38.1,33.894l7.124-12.42C46.72,19.075,46.947,17.455,45.22,14.7Z" fill="#0f4da8"/><path d="M32.726,36.162H24.1a4.264,4.264,0,0,1-1.961-.478,4.051,4.051,0,0,1-1.652-1.6L12.5,20.392a4.5,4.5,0,0,1,0-4.564L20.693,1.651A3.7,3.7,0,0,1,21.905.517,3.812,3.812,0,0,1,23.87,0l8.707.021c-2.426.019-3.736,3.134-3.736,3.134L21.694,15.608c-1.668,2.348,0,4.981,0,4.981l7.132,12.355C30.4,36.113,32.594,36.162,32.726,36.162Z" fill="#54c8f0"/><path d="M9.772,21.21l8.661,14.981H11.887a3.99,3.99,0,0,1-3.182-1.886L.674,20.421a4.354,4.354,0,0,1,0-4.654L8.426,2.251A4.272,4.272,0,0,1,11.792.056h6.641L9.772,14.92A6.453,6.453,0,0,0,9.772,21.21Z" fill="#54c8f0"/></g></g></svg>