<svg xmlns="http://www.w3.org/2000/svg" viewBox="0 0 169.44 30.27"><defs><style>.cls-1{fill:#0e4ca5;}.cls-2{fill:#1552b6;}.cls-3{fill:#074696;}.cls-4{fill:#013a78;}.cls-5{fill:#54c8f0;}.cls-6{fill:#63b9f3;}</style></defs><g id="Layer_2" data-name="Layer 2"><g id="Layer_2-2" data-name="Layer 2"><path class="cls-1" d="M37.82,18l-6,10.39a3.64,3.64,0,0,1-2.94,1.89H23l.27-.41,1.48-2.26L31,16.84a3.46,3.46,0,0,0,0-3.38L23.43.45,23.19,0h5.68c1.18,0,2.2.64,3.26,2.44l5.69,9.82C39.27,14.6,39.08,16,37.82,18Z"/><path class="cls-2" d="M23.75,29.83l1.33-2L31.32,17v0a3.85,3.85,0,0,0,0-3.75L23.9.45h5c.74,0,1.74.25,2.91,2.24l5.69,9.81c1.41,2.25,1.14,3.43,0,5.25l-6,10.41a3.23,3.23,0,0,1-2.58,1.67Z"/><path class="cls-3" d="M34,17.74,28,28.16a3.13,3.13,0,0,1-2.58,1.67H23.26l1.48-2.26L31,16.84a3.46,3.46,0,0,0,0-3.38L23.43.45h2c.21,0,1.53,0,2.87,2.19v0L34,12.5C35.39,14.75,35.13,15.93,34,17.74Z"/><path class="cls-4" d="M27.94,0a4.77,4.77,0,0,0-2.3,4.22l-1.89-2.9,1-1.35Z"/><path class="cls-5" d="M27.37,30.25H20.16a3.67,3.67,0,0,1-1.64-.4,3.38,3.38,0,0,1-1.38-1.34L10.46,17.06a3.75,3.75,0,0,1,0-3.82L17.31,1.38a3.2,3.2,0,0,1,1-.95A3.27,3.27,0,0,1,20,0l7.28,0c-2,0-3.13,2.62-3.13,2.62l-6,10.41a4,4,0,0,0,0,4.17l6,10.34C25.43,30.21,27.26,30.25,27.37,30.25Z"/><path class="cls-6" d="M24.22,29.85H19.73a2.6,2.6,0,0,1-2.2-1.2l-.08-.14L10.77,17.06a3.78,3.78,0,0,1,0-3.82L17.63,1.38h0A2.2,2.2,0,0,1,19.47.43h4.75a4,4,0,0,0-2.81,2l-6,10.38a4.34,4.34,0,0,0,0,4.6l6,10.31A4.72,4.72,0,0,0,24.22,29.85Z"/><path class="cls-5" d="M8.17,17.74l7.25,12.53H9.94a3.35,3.35,0,0,1-2.66-1.58L.56,17.08a3.64,3.64,0,0,1,0-3.89L7.05,1.88A3.56,3.56,0,0,1,9.86.05h5.56L8.17,12.48A5.41,5.41,0,0,0,8.17,17.74Z"/><path class="cls-6" d="M5.57,17.7,12.81,30H10.24a3.37,3.37,0,0,1-2.67-1.55L.86,17.05a3.52,3.52,0,0,1,0-3.83L7.34,2.1A3.6,3.6,0,0,1,10.16.3h2.65L5.57,12.52A5.23,5.23,0,0,0,5.57,17.7Z"/><path class="cls-2" d="M46.16,1.25h5.16V29H46.16Z"/><path class="cls-2" d="M58.82,1.25H64V29H58.82Z"/><path class="cls-2" d="M76.73,27.57a13.62,13.62,0,0,1-5.31-5.09,14.09,14.09,0,0,1-1.93-7.34A14,14,0,0,1,71.43,7.8a13.79,13.79,0,0,1,5.34-5.1A15.66,15.66,0,0,1,84.37.85,15.94,15.94,0,0,1,90.6,2a12.76,12.76,0,0,1,4.76,3.45L92,8.63a9.73,9.73,0,0,0-7.42-3.26,10.44,10.44,0,0,0-5.12,1.25A9,9,0,0,0,76,10.1a9.93,9.93,0,0,0-1.27,5,9.92,9.92,0,0,0,1.27,5,9,9,0,0,0,3.53,3.48,10.44,10.44,0,0,0,5.12,1.25A9.67,9.67,0,0,0,92,21.6l3.33,3.18a12.75,12.75,0,0,1-4.78,3.45,16.08,16.08,0,0,1-6.25,1.19A15.66,15.66,0,0,1,76.73,27.57Z"/><path class="cls-2" d="M134,22.71h-4.91V29h-5V22.71H108.89V19.14L122.58,1.25h5.51L115.2,18.35h9.08v-5.6h4.85v5.6H134Z"/><path class="cls-2" d="M137.81,28.37a3.32,3.32,0,1,1,2.31.93A3.18,3.18,0,0,1,137.81,28.37Z"/><path class="cls-2" d="M151.86,27.73a11.35,11.35,0,0,1-4.13-4.92,18.06,18.06,0,0,1-1.5-7.67,18.08,18.08,0,0,1,1.5-7.68,11.35,11.35,0,0,1,4.13-4.92,11.35,11.35,0,0,1,11.92,0,11.32,11.32,0,0,1,4.15,4.92,18.08,18.08,0,0,1,1.51,7.68,18.06,18.06,0,0,1-1.51,7.67,11.32,11.32,0,0,1-4.15,4.92,11.35,11.35,0,0,1-11.92,0Zm10.65-5.25q1.73-2.46,1.73-7.34c0-3.26-.58-5.7-1.73-7.34a5.67,5.67,0,0,0-9.36,0c-1.15,1.64-1.73,4.08-1.73,7.34s.58,5.7,1.73,7.34a5.68,5.68,0,0,0,9.36,0Z"/></g></g></svg>