<svg xmlns="http://www.w3.org/2000/svg" xmlns:xlink="http://www.w3.org/1999/xlink" viewBox="0 0 120 37"><defs><linearGradient id="linear-gradient" x1="88.401" y1="29.756" x2="92.651" y2="35.65" gradientUnits="userSpaceOnUse"><stop offset="0" stop-color="#f6b95f"/><stop offset="0.431" stop-color="#9d8d52"/><stop offset="0.906" stop-color="#365b42"/></linearGradient><linearGradient id="linear-gradient-2" x1="81.312" y1="22.049" x2="88.355" y2="31.426" gradientUnits="userSpaceOnUse"><stop offset="0" stop-color="#dc9a41"/><stop offset="1" stop-color="#f7b95f"/></linearGradient><linearGradient id="linear-gradient-3" x1="85.735" y1="21.493" x2="81.067" y2="15.271" gradientUnits="userSpaceOnUse"><stop offset="0" stop-color="#dc9a41"/><stop offset="0.226" stop-color="#d7923e"/><stop offset="0.576" stop-color="#cb7c36"/><stop offset="1" stop-color="#b75929"/></linearGradient><linearGradient id="linear-gradient-4" x1="84.853" y1="17.306" x2="69.826" y2="8.63" gradientUnits="userSpaceOnUse"><stop offset="0" stop-color="#b75929"/><stop offset="0.318" stop-color="#b15429"/><stop offset="0.758" stop-color="#9f4729"/><stop offset="1" stop-color="#923d29"/></linearGradient><linearGradient id="linear-gradient-5" x1="72.335" y1="9.107" x2="65.198" y2="4.987" gradientUnits="userSpaceOnUse"><stop offset="0" stop-color="#933d29"/><stop offset="0.365" stop-color="#8d3a26"/><stop offset="0.868" stop-color="#7b311e"/><stop offset="1" stop-color="#752e1b"/></linearGradient><linearGradient id="linear-gradient-6" x1="78.069" y1="16.785" x2="85.354" y2="29.404" gradientUnits="userSpaceOnUse"><stop offset="0" stop-color="#2c6b3e"/><stop offset="0.418" stop-color="#2c6b3e"/><stop offset="0.568" stop-color="#2b663c"/><stop offset="0.743" stop-color="#285837"/><stop offset="0.931" stop-color="#24412e"/><stop offset="1" stop-color="#22362a"/></linearGradient></defs><g id="Layer_2" data-name="Layer 2"><rect x="53.756" y="0.372" width="0.958" height="36.255" fill="#933d29"/><path d="M118.909,22.531a2.728,2.728,0,0,0,.517-1.47,1.588,1.588,0,0,0-1.362-1.621l0-.017h-2l.038-.178a10.286,10.286,0,0,1,.835-2.527h.727l.234-.1a2.578,2.578,0,0,0,1.62-2.339,1.876,1.876,0,0,0-1.631-1.952l0-.018h-2.025l-1.259.258.086-.289h-2.3l-.63.313a2.924,2.924,0,0,0-1.279-.282,4.059,4.059,0,0,0-2.635.995,2.625,2.625,0,0,0-2.228-.995,3.952,3.952,0,0,0-.665.055l.385-1.63H96.059L95.5,13.373l.941.169.979,2.887-.2.933-.878.1-.236,1.119a12.146,12.146,0,0,0-2.232-3.805c-.206-.241-.433-.48-.693-.73a11.29,11.29,0,0,0-3.147-2.129,12.349,12.349,0,0,0-5.207-1.055A15.5,15.5,0,0,0,82.726,11c-.123.017-.246.035-.367.054l.119-.607H95.13v-8.8H73.952l-2.11,10.7V.379l-2.006,1.51a13.833,13.833,0,0,1-1.789,1.086c-.8.421-1.711.846-2.7,1.264A27.783,27.783,0,0,1,62.4,5.3a12.774,12.774,0,0,1-2.614.509L58.63,5.9V8.479h1.253a1.5,1.5,0,0,1,1.016.282,2.17,2.17,0,0,1,.613.91l0,.01a5,5,0,0,1,.3,1.275v.013c.056.584.068.868.068,1v10.57l.587.368a11.359,11.359,0,0,1,1.321.983A35.141,35.141,0,0,1,68.854,29.8l.015.02a15.221,15.221,0,0,0,1.079,1.308A17.146,17.146,0,0,0,76.9,35.69a16.319,16.319,0,0,0,4.37.885c.457.031.885.046,1.309.046a15.737,15.737,0,0,0,6.306-1.182A13.2,13.2,0,0,0,93.4,32.29,13.451,13.451,0,0,0,95.69,28.9H119.9V22.531Zm-45.691-.25-1.056,1.875c-.1.178-.207.355-.321.529V16.238l2.421,2.767A8.452,8.452,0,0,0,73.218,22.281Z" fill="#e9eae0"/><path d="M100.026,17.866c-.12.548.06.588.727.658l-.079.379H97.305l.08-.379c.727-.08.877-.129,1-.658l.339-1.594L97.5,12.655c-.09-.269-.219-.319-.5-.369l.079-.379h3.109l-.079.379c-.628.03-.838.149-.838.448a1.668,1.668,0,0,0,.12.509l.827,2.4L102,13.213a1.418,1.418,0,0,0,.319-.618c0-.189-.17-.3-.678-.309l.08-.379h2.033l-.09.379a.929.929,0,0,0-.658.369l-2.63,3.577Z" fill="#2b5b3f"/><path d="M103.932,16.5a2.082,2.082,0,0,0-.01.249c0,.887.389,1.365,1.047,1.365a1.934,1.934,0,0,0,1.454-.857l.21.19A2.906,2.906,0,0,1,104.171,19a1.776,1.776,0,0,1-1.813-1.953,3.523,3.523,0,0,1,3.258-3.567c.967,0,1.415.5,1.415,1.1C107.031,15.754,105.646,16.212,103.932,16.5Zm.04-.309c1.256-.3,1.874-.926,1.874-1.823,0-.3-.12-.509-.4-.509C104.769,13.86,104.142,15.086,103.972,16.192Z" fill="#2b5b3f"/><path d="M110.579,16.75c-.648,1.306-1.386,2.252-2.272,2.252-.738,0-1.166-.588-1.166-1.554,0-1.933,1.495-3.966,3.338-3.966a1.551,1.551,0,0,1,1.176.478l1.026-.508h.329l-.379,1.275-.687,2.81a3.12,3.12,0,0,0-.08.419c0,.1.05.15.14.15.179,0,.428-.23.827-.718l.219.179c-.678.947-1.166,1.435-1.874,1.435a.825.825,0,0,1-.906-.876A5.835,5.835,0,0,1,110.579,16.75Zm.647-2.431a.6.6,0,0,0-.568-.439c-1.016,0-1.933,1.884-1.933,3.349,0,.4.11.687.4.687C109.7,17.916,110.648,16.481,111.226,14.319Z" fill="#2b5b3f"/><path d="M115.8,15.056l-.448,1.4c1.016-2.1,1.545-2.979,2.252-2.979a.64.64,0,0,1,.658.717,1.321,1.321,0,0,1-.857,1.186h-.08c0-.249-.07-.458-.359-.458-.727,0-1.594,1.644-2.092,3.976h-1.585l1.106-4.395-.548-.369.05-.229,2.093-.428h.249Z" fill="#2b5b3f"/><path d="M97.983,21.79H97l-.228.385a.414.414,0,0,0-.068.18c0,.09.09.123.288.135l-.033.142h-.794l.03-.142a.287.287,0,0,0,.247-.139l1.243-2.066-.056-.3h.655l.445,2.362c.019.1.09.124.191.139l-.03.142h-1.2l.03-.142c.2-.008.348-.034.348-.2a.478.478,0,0,0-.011-.113Zm-.876-.18h.842l-.2-1.078Z" fill="#2b5b3f"/><path d="M99.974,21.516c.269-.535.662-.92,1.018-.92a.266.266,0,0,1,.288.3.7.7,0,0,1-.03.194l-.28,1.026a.746.746,0,0,0-.03.157c0,.038.018.056.052.056.067,0,.165-.086.31-.269l.083.067c-.255.356-.438.539-.7.539a.312.312,0,0,1-.344-.322,1.043,1.043,0,0,1,.052-.31l.243-.846a.651.651,0,0,0,.023-.124c0-.045-.015-.071-.064-.071-.176,0-.6.505-.752,1.119l-.131.517h-.595l.415-1.651-.206-.138.019-.086.786-.161h.094Z" fill="#2b5b3f"/><path d="M102.324,21.516c.27-.535.663-.92,1.019-.92a.267.267,0,0,1,.288.3.74.74,0,0,1-.03.194l-.281,1.026a.746.746,0,0,0-.03.157c0,.038.019.056.053.056.067,0,.164-.086.31-.269l.083.067c-.255.356-.438.539-.7.539a.313.313,0,0,1-.345-.322,1.016,1.016,0,0,1,.053-.31l.243-.846a.639.639,0,0,0,.022-.124c0-.045-.015-.071-.063-.071-.176,0-.6.505-.752,1.119l-.132.517h-.595l.416-1.651-.206-.138.018-.086.787-.161h.093Z" fill="#2b5b3f"/><path d="M104.2,20.981l-.2-.138.018-.086.783-.161h.1l-.386,1.523a.819.819,0,0,0-.03.157c0,.038.019.056.053.056.067,0,.164-.086.311-.269l.082.067c-.255.356-.438.539-.7.539a.3.3,0,0,1-.333-.322,1.283,1.283,0,0,1,.041-.31Zm.18-.883a.332.332,0,0,1,.344-.337.3.3,0,0,1,.322.3.336.336,0,0,1-.349.337A.3.3,0,0,1,104.384,20.1Z" fill="#2b5b3f"/><path d="M105.076,20.828l.026-.075.7-.157h.053l.108,1.531.3-.352a.905.905,0,0,0,.266-.584c0-.21-.139-.315-.352-.307l.007-.045a.493.493,0,0,1,.412-.243.319.319,0,0,1,.333.359,1.427,1.427,0,0,1-.5.853l-.8.846h-.172l-.161-1.7Z" fill="#2b5b3f"/><path d="M107.531,21.73c0,.03,0,.063,0,.093,0,.333.145.513.392.513a.726.726,0,0,0,.547-.322l.079.072a1.091,1.091,0,0,1-.925.583.667.667,0,0,1-.681-.733,1.323,1.323,0,0,1,1.224-1.34c.363,0,.531.187.531.411C108.7,21.449,108.175,21.621,107.531,21.73Zm.015-.116c.472-.113.7-.348.7-.685,0-.112-.045-.191-.15-.191C107.846,20.738,107.61,21.2,107.546,21.614Z" fill="#2b5b3f"/><path d="M109.646,21.187l-.168.528c.382-.79.58-1.119.846-1.119a.24.24,0,0,1,.247.269.5.5,0,0,1-.322.446h-.03c0-.094-.027-.173-.135-.173-.273,0-.6.618-.786,1.494H108.7l.415-1.651-.206-.138.019-.086.786-.161h.094Z" fill="#2b5b3f"/><path d="M111.4,22.318c0-.278-.73-.584-.73-1.052a.732.732,0,0,1,.786-.67c.3,0,.539.119.539.355a.3.3,0,0,1-.24.259h-.03c-.063-.248-.213-.465-.426-.465a.187.187,0,0,0-.206.2c0,.243.76.6.76,1.048a.734.734,0,0,1-.794.677c-.389,0-.662-.172-.662-.43a.325.325,0,0,1,.243-.3h.026c.071.352.251.587.509.587A.2.2,0,0,0,111.4,22.318Z" fill="#2b5b3f"/><path d="M113.385,21.823c-.243.491-.52.846-.853.846-.277,0-.438-.221-.438-.583a1.452,1.452,0,0,1,1.254-1.49.578.578,0,0,1,.441.179l.386-.19h.124l-.143.479-.258,1.055a1.162,1.162,0,0,0-.03.157c0,.038.019.056.053.056.067,0,.161-.086.31-.269l.083.067c-.255.356-.438.539-.7.539a.31.31,0,0,1-.341-.329A2.245,2.245,0,0,1,113.385,21.823Zm.244-.913a.226.226,0,0,0-.214-.165c-.381,0-.726.708-.726,1.258,0,.15.041.258.15.258C113.056,22.261,113.412,21.722,113.629,20.91Z" fill="#2b5b3f"/><path d="M115.347,21.187l-.169.528c.382-.79.58-1.119.846-1.119a.24.24,0,0,1,.247.269.5.5,0,0,1-.322.446h-.03c0-.094-.026-.173-.134-.173-.274,0-.6.618-.787,1.494H114.4l.416-1.651-.206-.138.019-.086.786-.161h.093Z" fill="#2b5b3f"/><path d="M116.252,20.828l.026-.075.682-.157h.052l.311,1.725.056-.078a1.629,1.629,0,0,0,.408-1,.331.331,0,0,0-.378-.363l0-.045a.489.489,0,0,1,.4-.243.344.344,0,0,1,.359.385,3.059,3.059,0,0,1-.714,1.378c-.592.827-.925,1.085-1.292,1.085-.206,0-.385-.108-.385-.322a.337.337,0,0,1,.262-.314h.052c0,.232.086.37.281.37a.66.66,0,0,0,.486-.273l-.393-1.95Z" fill="#2b5b3f"/><rect x="91.423" y="23.703" width="27.223" height="3.862" fill="#2b5b3f"/><path d="M96.458,27.067l.089-.455.832-.764a3.159,3.159,0,0,0,.393-.418,1.184,1.184,0,0,0,.184-.34,1.082,1.082,0,0,0,.051-.332.56.56,0,0,0-.044-.237.139.139,0,0,0-.129-.092c-.086,0-.156.067-.211.2a1.469,1.469,0,0,0-.091.51.7.7,0,0,1-.376-.094.315.315,0,0,1-.151-.284.528.528,0,0,1,.228-.43,1.058,1.058,0,0,1,.661-.177,1.033,1.033,0,0,1,.587.143.449.449,0,0,1,.209.392.84.84,0,0,1-.052.3,1.027,1.027,0,0,1-.177.292,2.807,2.807,0,0,1-.346.34q-.22.189-.559.446l-.587.5h.817a.309.309,0,0,0,.259-.106.938.938,0,0,0,.131-.236l.028-.076h.257l-.225.917Z" fill="#e9eae0"/><path d="M99.708,27.111a.679.679,0,0,1-.539-.237,1.028,1.028,0,0,1-.2-.688,3.134,3.134,0,0,1,.2-1.072,2.251,2.251,0,0,1,.249-.484,1.252,1.252,0,0,1,.352-.348.83.83,0,0,1,.457-.131.75.75,0,0,1,.372.093.636.636,0,0,1,.263.287,1.111,1.111,0,0,1,.1.5,3.09,3.09,0,0,1-.048.518,3.579,3.579,0,0,1-.145.558,2.3,2.3,0,0,1-.246.5,1.278,1.278,0,0,1-.35.366A.774.774,0,0,1,99.708,27.111Zm.024-.3a.26.26,0,0,0,.2-.138,1.625,1.625,0,0,0,.179-.362,4.074,4.074,0,0,0,.145-.487q.063-.264.1-.517a3.547,3.547,0,0,0,.034-.45c0-.274-.06-.41-.181-.41-.064,0-.128.045-.191.134a1.654,1.654,0,0,0-.179.356,4.053,4.053,0,0,0-.147.483c-.042.174-.074.346-.1.517a3.162,3.162,0,0,0-.037.456.77.77,0,0,0,.049.314C99.636,26.775,99.679,26.809,99.732,26.809Z" fill="#e9eae0"/><path d="M101.208,27.067l.052-.234h.226a.27.27,0,0,0,.191-.062.336.336,0,0,0,.09-.187l.306-1.456c.018-.085.037-.171.056-.255s.043-.171.072-.259h-.012a2.457,2.457,0,0,1-.281.311.361.361,0,0,1-.233.107.159.159,0,0,1-.133-.085.424.424,0,0,1-.052-.249,2.643,2.643,0,0,0,.269-.1,1.846,1.846,0,0,0,.354-.211l.289-.209h.535l-.5,2.357a.963.963,0,0,0-.022.1.5.5,0,0,0-.011.083.091.091,0,0,0,.077.1.729.729,0,0,0,.189.02h.161l-.053.234Z" fill="#e9eae0"/><path d="M104.22,27.111a.679.679,0,0,1-.539-.237,1.028,1.028,0,0,1-.2-.688,3.211,3.211,0,0,1,.048-.525,3.1,3.1,0,0,1,.149-.547,2.209,2.209,0,0,1,.25-.484,1.226,1.226,0,0,1,.352-.348.824.824,0,0,1,.456-.131.75.75,0,0,1,.372.093.643.643,0,0,1,.264.287,1.126,1.126,0,0,1,.1.5,3.09,3.09,0,0,1-.048.518,3.471,3.471,0,0,1-.145.558,2.294,2.294,0,0,1-.245.5,1.306,1.306,0,0,1-.35.366A.779.779,0,0,1,104.22,27.111Zm.024-.3a.263.263,0,0,0,.2-.138,1.627,1.627,0,0,0,.178-.362,3.9,3.9,0,0,0,.145-.487q.063-.264.1-.517a3.547,3.547,0,0,0,.034-.45c0-.274-.06-.41-.181-.41-.064,0-.128.045-.191.134a1.654,1.654,0,0,0-.179.356,4.053,4.053,0,0,0-.147.483q-.061.261-.1.517a3.3,3.3,0,0,0-.036.456.79.79,0,0,0,.048.314C104.148,26.775,104.191,26.809,104.244,26.809Z" fill="#e9eae0"/><path d="M106.633,26.21l.113-.478h.909l-.113.478Z" fill="#e9eae0"/><path d="M108.833,27.067l.089-.455.832-.764a3.21,3.21,0,0,0,.392-.418,1.165,1.165,0,0,0,.185-.34,1.112,1.112,0,0,0,.05-.332.56.56,0,0,0-.044-.237.138.138,0,0,0-.129-.092c-.085,0-.156.067-.211.2a1.448,1.448,0,0,0-.09.51.692.692,0,0,1-.376-.094.313.313,0,0,1-.151-.284.527.527,0,0,1,.227-.43,1.058,1.058,0,0,1,.661-.177,1.036,1.036,0,0,1,.588.143.451.451,0,0,1,.209.392.84.84,0,0,1-.052.3,1.027,1.027,0,0,1-.177.292,2.957,2.957,0,0,1-.346.34q-.222.189-.559.446l-.587.5h.816a.313.313,0,0,0,.26-.106.935.935,0,0,0,.13-.236l.028-.076h.258l-.225.917Z" fill="#e9eae0"/><path d="M112.082,27.111a.676.676,0,0,1-.538-.237,1.022,1.022,0,0,1-.206-.688,3.2,3.2,0,0,1,.2-1.072,2.254,2.254,0,0,1,.25-.484,1.226,1.226,0,0,1,.352-.348.824.824,0,0,1,.456-.131.75.75,0,0,1,.372.093.638.638,0,0,1,.264.287,1.126,1.126,0,0,1,.1.5,3.09,3.09,0,0,1-.048.518,3.471,3.471,0,0,1-.145.558,2.294,2.294,0,0,1-.245.5,1.306,1.306,0,0,1-.35.366A.777.777,0,0,1,112.082,27.111Zm.025-.3a.263.263,0,0,0,.2-.138,1.67,1.67,0,0,0,.179-.362,4.078,4.078,0,0,0,.144-.487q.063-.264.1-.517a3.371,3.371,0,0,0,.034-.45c0-.274-.06-.41-.181-.41-.064,0-.128.045-.191.134a1.7,1.7,0,0,0-.179.356,3.879,3.879,0,0,0-.146.483q-.063.261-.1.517a3.3,3.3,0,0,0-.036.456.79.79,0,0,0,.048.314C112.01,26.775,112.053,26.809,112.107,26.809Z" fill="#e9eae0"/><path d="M113.345,27.067l.089-.455.832-.764a3.142,3.142,0,0,0,.392-.418,1.165,1.165,0,0,0,.185-.34,1.081,1.081,0,0,0,.05-.332.545.545,0,0,0-.044-.237.137.137,0,0,0-.128-.092c-.086,0-.157.067-.212.2a1.448,1.448,0,0,0-.09.51.7.7,0,0,1-.376-.094.313.313,0,0,1-.151-.284.53.53,0,0,1,.227-.43,1.062,1.062,0,0,1,.662-.177,1.035,1.035,0,0,1,.587.143.449.449,0,0,1,.209.392.84.84,0,0,1-.052.3,1.027,1.027,0,0,1-.177.292,2.88,2.88,0,0,1-.346.34q-.222.189-.559.446l-.587.5h.816a.311.311,0,0,0,.26-.106.9.9,0,0,0,.13-.236l.028-.076h.258l-.225.917Z" fill="#e9eae0"/><path d="M116.462,27.107a.822.822,0,0,1-.547-.145.445.445,0,0,1-.165-.346.388.388,0,0,1,.093-.261.361.361,0,0,1,.293-.109,1.287,1.287,0,0,0,.026.25.458.458,0,0,0,.1.215.3.3,0,0,0,.235.086.365.365,0,0,0,.324-.187,1.017,1.017,0,0,0,.119-.541.511.511,0,0,0-.109-.355.357.357,0,0,0-.278-.119.616.616,0,0,0-.2.028,1.084,1.084,0,0,0-.142.06l-.173-.108.382-1.38h1.456l-.133.792h-.27a1.137,1.137,0,0,0,.013-.116c0-.043,0-.071,0-.085a.088.088,0,0,0-.036-.072.242.242,0,0,0-.14-.028h-.748l-.181.687c.045-.013.1-.027.16-.042a1.054,1.054,0,0,1,.23-.022.91.91,0,0,1,.6.187.666.666,0,0,1,.223.541,1.1,1.1,0,0,1-.135.545.969.969,0,0,1-.388.384A1.256,1.256,0,0,1,116.462,27.107Z" fill="#e9eae0"/><path d="M81.352,35.243c.4.028.808.044,1.223.044a14.429,14.429,0,0,0,5.807-1.078A11.847,11.847,0,0,0,94.9,27.472a12.432,12.432,0,0,0,.726-2.961A57.289,57.289,0,0,1,81.352,35.243Z" fill="url(#linear-gradient)"/><path d="M95.625,24.511a11.25,11.25,0,0,0,.077-1.282A12.366,12.366,0,0,0,95,19.1a10.876,10.876,0,0,0-2.072-3.6c-.193-.225-.4-.438-.612-.644a48.268,48.268,0,0,1-3.267,3.688A8.62,8.62,0,0,1,75.005,28.5q-2.019.944-4.135,1.7a16.243,16.243,0,0,0,2.159,1.949,16,16,0,0,0,4.289,2.283,15.033,15.033,0,0,0,4.034.814A57.289,57.289,0,0,0,95.625,24.511Z" fill="url(#linear-gradient-2)"/><path d="M85.561,9.107a39.338,39.338,0,0,0,4.051-6.3h4.265v6.3ZM72.115,26.341Q71.038,27.637,69.88,29a13.69,13.69,0,0,0,.99,1.2q2.115-.756,4.135-1.7a8.579,8.579,0,0,1-1.751-3.807A11.116,11.116,0,0,1,72.115,26.341ZM84.831,12.029a14.334,14.334,0,0,0-1.936.126Q81.655,13.436,80.3,14.6a8.608,8.608,0,0,1,8.745,3.947,48.268,48.268,0,0,0,3.267-3.688,10.058,10.058,0,0,0-2.8-1.893A11.065,11.065,0,0,0,84.831,12.029ZM69.88,29c.392-.461.347-.349.707-.777l0-7.461a38.953,38.953,0,0,1-5.99,2.1A36.083,36.083,0,0,1,69.88,29Z" fill="url(#linear-gradient-3)"/><path d="M80.3,14.6a8.619,8.619,0,0,0-5.365,3.189l-2.375-2.715,1.313-6.661a30.677,30.677,0,0,0,5.329-5.607H89.612a39.338,39.338,0,0,1-4.051,6.3H81.444l-.694,3.579a9.38,9.38,0,0,1,2.145-.531Q81.655,13.436,80.3,14.6Zm-9.714-3.85a30.31,30.31,0,0,1-7.457,3.306v7.708a12.711,12.711,0,0,1,1.467,1.09,38.953,38.953,0,0,0,5.99-2.1V10.753Z" fill="url(#linear-gradient-4)"/><path d="M74.981,2.809h4.224a30.677,30.677,0,0,1-5.329,5.607Zm-4.392,0a15.016,15.016,0,0,1-1.962,1.2q-1.258.659-2.784,1.3a28.84,28.84,0,0,1-3.085,1.114,13.858,13.858,0,0,1-2.875.557v.164a2.66,2.66,0,0,1,1.852.6,3.411,3.411,0,0,1,.958,1.425,6.165,6.165,0,0,1,.366,1.6c.049.506.073.881.073,1.123v2.167a30.31,30.31,0,0,0,7.457-3.306V2.809Z" fill="url(#linear-gradient-5)"/><path d="M89,23.091a7.287,7.287,0,1,1-7.283-7.284A7.3,7.3,0,0,1,89,23.091Z" fill="url(#linear-gradient-6)"/><path d="M78.862,21.411a9.012,9.012,0,0,1,.951.912,1.653,1.653,0,0,1,.169.208,8.045,8.045,0,0,1,2.689-5.821,6.6,6.6,0,0,0-.944-.071,6.415,6.415,0,0,0-3.666,1.145A5.1,5.1,0,0,1,78.862,21.411Zm.7.071s-.6-.158-.147-.833C80.083,21.121,79.565,21.482,79.565,21.482Zm2.126-4.459c-.043.813-.626.569-.626.569S80.876,17,81.691,17.023Zm-1.648,1.924s-.205-.589.61-.586C80.632,19.175,80.043,18.947,80.043,18.947Zm.27-1.788c.383.719-.241.811-.241.811S79.6,17.559,80.313,17.159Zm-.266,2.435c.277.766-.354.767-.354.767S79.287,19.887,80.047,19.594Zm-.611.022s-.623-.032-.313-.786C79.869,19.157,79.436,19.616,79.436,19.616Zm-.711-1.859c.814.018.589.608.589.608S78.725,18.572,78.725,17.757Z" fill="#e9eae0"/><path d="M79.6,22.518a9.036,9.036,0,0,0-.977-.938,12.943,12.943,0,0,0-2.533-1.627,6.245,6.245,0,0,0-.7,1.914,3.049,3.049,0,0,1,2.246,1.706,1.7,1.7,0,0,1,.209-.033,5.266,5.266,0,0,1,2.78.521A6.188,6.188,0,0,0,79.6,22.518Zm-2.651-1.682c.81.086.536.655.536.655S76.879,21.648,76.947,20.836Zm-1.077.194c.764-.283.771.348.771.348S76.17,21.788,75.87,21.03Zm.731.936c.66-.479.836.127.836.127S77.094,22.614,76.6,21.966Zm1.59,1.049s-.506.366-.737-.415C78.24,22.386,78.191,23.015,78.191,23.015Zm.222-.735s-.6.161-.54-.651C78.684,21.71,78.413,22.28,78.413,22.28Zm.27.486c.765-.282.771.349.771.349S78.983,23.524,78.683,22.766Z" fill="#e9eae0"/><path d="M82.384,25.435h-.013a5.03,5.03,0,0,0-1.927-4.5,4.786,4.786,0,0,0-.117,2.044,5.028,5.028,0,0,1,.97,3.594,3.589,3.589,0,0,1-1.816,2.565,6.33,6.33,0,0,0,4.453.013,5.047,5.047,0,0,1-1.439-2.48A4.874,4.874,0,0,1,82.384,25.435Zm-1.7-3.871c.706.406.225.815.225.815S80.289,22.279,80.68,21.564Zm.594,1.673s-.55.294-.674-.511C81.408,22.62,81.274,23.237,81.274,23.237Zm.291.976s-.511-.359.153-.832C82.176,24.054,81.565,24.213,81.565,24.213Z" fill="#e9eae0"/><path d="M75.346,22.153a6.439,6.439,0,0,0-.078.938,6.593,6.593,0,0,0,.143,1.354,5.131,5.131,0,0,1,1.921-.82A2.751,2.751,0,0,0,75.346,22.153Zm.339,1.1c.575-.578.846-.008.846-.008S76.276,23.81,75.685,23.248Z" fill="#e9eae0"/><path d="M77.827,17.954A6.46,6.46,0,0,0,76.238,19.7,13.3,13.3,0,0,1,78.6,21.2,4.843,4.843,0,0,0,77.827,17.954Zm-.2,1.921s-.5.369-.74-.41C77.67,19.245,77.626,19.875,77.626,19.875ZM77.64,18.5c.752.312.328.78.328.78S77.344,19.26,77.64,18.5Zm.617,2.042s-.623-.035-.31-.787C78.692,20.084,78.257,20.542,78.257,20.542Z" fill="#e9eae0"/><path d="M80.529,20.643a4.825,4.825,0,0,1,2.077,3.431,4.536,4.536,0,0,1,.449-1.035c.026-.046.059-.085.085-.13l-.013.006a7.187,7.187,0,0,1,1.3-5.677,6.1,6.1,0,0,0-1.4-.469A8.863,8.863,0,0,0,80.529,20.643Zm1.181.2s-.59.2-.586-.61C81.938,20.256,81.71,20.844,81.71,20.844Zm0-.863s-.558-.281.03-.846C82.291,19.735,81.71,19.981,81.71,19.981Zm.121-1.224s-.094-.616.707-.465C82.369,19.089,81.831,18.757,81.831,18.757Zm.738,1.569c.362.73-.265.8-.265.8S81.848,20.7,82.569,20.326Zm.009,1.977s-.619-.079-.254-.807C83.044,21.876,82.578,22.3,82.578,22.3Zm1-5.081c-.225.783-.737.414-.737.414S82.794,17.013,83.581,17.222Zm-.526.784c.6.552.041.845.041.845S82.517,18.618,83.055,18.006Zm-.244,1.967s-.611-.128-.189-.825C83.31,19.586,82.811,19.973,82.811,19.973Z" fill="#e9eae0"/><path d="M83.368,22.577a12.153,12.153,0,0,1,1.419-1.544c.293-.286.592-.572.872-.879a5.8,5.8,0,0,0,.925-1.295A6.356,6.356,0,0,0,84.7,17.368,6.858,6.858,0,0,0,83.368,22.577Zm2.832-3.7c-.116.806-.674.511-.674.511S85.391,18.776,86.2,18.874Zm-.84,1.042c-.176.8-.71.46-.71.46S84.561,19.758,85.36,19.916Zm-.766-.3s-.347-.519.442-.722C85.221,19.692,84.594,19.621,84.594,19.621Zm.3-1.745c.353.734-.275.8-.275.8S84.167,18.245,84.894,17.876Zm-.85,1.679c.491.651-.112.839-.112.839S83.405,20.061,84.044,19.555Zm.056,1.076c.228.782-.4.744-.4.744S83.323,20.876,84.1,20.631Z" fill="#e9eae0"/><path d="M87.619,21.209c.078-.046.156-.091.235-.143a6.512,6.512,0,0,0-1.068-1.973,6.564,6.564,0,0,1-.918,1.263c-.28.306-.586.6-.879.886a9.547,9.547,0,0,0-1.687,1.94,4.6,4.6,0,0,0-.481,1.185,7.109,7.109,0,0,1,3.125-1.634A3.9,3.9,0,0,1,87.619,21.209Zm-3.625,1.753s-.061-.621.73-.425C84.511,23.323,83.994,22.962,83.994,22.962Zm2.531-1.5s-.3-.547.5-.679C87.143,21.59,86.525,21.462,86.525,21.462Zm-1.38,1.131s-.4-.481.367-.762C85.776,22.6,85.145,22.593,85.145,22.593Zm.221-1.135s-.1-.616.7-.476C85.908,21.781,85.366,21.458,85.366,21.458ZM87.1,20.049c-.338.741-.791.3-.791.3S86.352,19.727,87.1,20.049Z" fill="#e9eae0"/><path d="M87.938,21.352c-.058.039-.117.072-.169.111a4.36,4.36,0,0,0-1.459,1.191,7.028,7.028,0,0,1,1.843-.09A6.15,6.15,0,0,0,87.938,21.352Zm-.791.863s.084-.5.657-.178C87.474,22.6,87.147,22.215,87.147,22.215Z" fill="#e9eae0"/><path d="M45.321,21.879,38.2,34.3a4.366,4.366,0,0,1-3.518,2.253h-7.09l.32-.488,1.766-2.693,7.438-12.838a4.114,4.114,0,0,0,0-4.038L28.114.94,27.832.454h6.781c1.411,0,2.636.767,3.906,2.918l6.8,11.733C47.048,17.86,46.821,19.479,45.321,21.879Z" fill="#0e4ca5"/><path d="M28.491,36.065l1.6-2.439,7.459-12.872.01-.024a4.583,4.583,0,0,0-.028-4.487L28.677.941h5.936c.887,0,2.084.3,3.486,2.679l6.8,11.729c1.685,2.688,1.363,4.105.009,6.272L37.766,34.072a3.908,3.908,0,0,1-3.09,1.993Z" fill="#1552b6"/><path d="M40.741,21.62,33.6,34.072a3.743,3.743,0,0,1-3.089,1.992h-2.6l1.766-2.693,7.438-12.838a4.114,4.114,0,0,0,0-4.038L28.114.94h2.349c.251,0,1.83-.018,3.438,2.618l.013.029,6.82,11.762C42.417,18.037,42.1,19.454,40.741,21.62Z" fill="#074696"/><path d="M33.5.454A5.706,5.706,0,0,0,30.752,5.5L28.491,2.033,29.72.422Z" fill="#013a78"/><path d="M32.827,36.566H24.2a4.239,4.239,0,0,1-1.961-.478,4.046,4.046,0,0,1-1.652-1.6L12.6,20.8a4.5,4.5,0,0,1,0-4.564L20.794,2.056A3.688,3.688,0,0,1,22.006.921,3.817,3.817,0,0,1,23.971.407l8.707.021c-2.426.019-3.736,3.133-3.736,3.133L21.8,16.012c-1.668,2.348,0,4.982,0,4.982l7.132,12.354C30.5,36.518,32.7,36.566,32.827,36.566Z" fill="#54c8f0"/><path d="M29.06,36.088H23.691a3.1,3.1,0,0,1-2.628-1.435c-.064-.1-.095-.163-.095-.163L12.982,20.8a4.5,4.5,0,0,1,0-4.564L21.175,2.056l.01-.016A2.647,2.647,0,0,1,23.374.922l5.686,0a4.855,4.855,0,0,0-3.368,2.42L18.569,15.758c-1.78,2.53-.141,5.279-.007,5.494l7.12,12.335A5.624,5.624,0,0,0,29.06,36.088Z" fill="#63b9f3"/><path d="M9.873,21.614,18.534,36.6H11.988A3.987,3.987,0,0,1,8.806,34.71L.775,20.825a4.353,4.353,0,0,1,0-4.653L8.527,2.656A4.274,4.274,0,0,1,11.893.46h6.641L9.873,15.325A6.451,6.451,0,0,0,9.873,21.614Z" fill="#54c8f0"/><path d="M6.759,21.563,15.421,36.3H12.339a4,4,0,0,1-3.182-1.854L1.126,20.787a4.221,4.221,0,0,1,0-4.576L8.879,2.919A4.289,4.289,0,0,1,12.244.76h3.177L6.759,15.378A6.25,6.25,0,0,0,6.759,21.563Z" fill="#63b9f3"/></g></svg>